<svg width="26" height="20" viewBox="0 0 26 20" fill="none" xmlns="http://www.w3.org/2000/svg">
<path fill-rule="evenodd" clip-rule="evenodd" d="M15.3394 0.935987C15.5049 0.553662 15.8901 0.314005 16.3063 0.334466C18.6007 0.447293 20.8031 1.27145 22.608 2.69258C22.7229 2.78307 22.8166 2.89766 22.8824 3.02828C24.8147 6.86312 25.8521 11.0863 25.9165 15.3799C25.9192 15.5624 25.872 15.7421 25.7799 15.8996L24.9166 15.3949C25.7799 15.8996 25.7796 15.9001 25.7793 15.9006L25.7787 15.9016L25.7773 15.9039L25.7741 15.9094L25.7656 15.9234C25.7604 15.9321 25.754 15.9425 25.7463 15.9546C25.7445 15.9576 25.7425 15.9607 25.7405 15.9639C25.72 15.9961 25.6921 16.0387 25.6564 16.0902C25.5851 16.1932 25.4825 16.3322 25.3463 16.4954C25.074 16.8213 24.6649 17.2464 24.0994 17.673C22.9598 18.5325 21.2074 19.3794 18.7239 19.4501C18.4171 19.4588 18.1233 19.3261 17.9269 19.0902C17.4364 18.501 16.9688 17.8932 16.525 17.2683C15.4647 17.5505 14.3053 17.7271 12.9999 17.7271C11.7004 17.7271 10.5457 17.5521 9.48927 17.2722C9.03901 17.8969 8.56547 18.5047 8.06964 19.0942C7.87323 19.3277 7.58094 19.4588 7.27592 19.4501C4.79248 19.3794 3.04008 18.5325 1.90039 17.673C1.33491 17.2464 0.9258 16.8213 0.653578 16.4954C0.517316 16.3322 0.414742 16.1932 0.343441 16.0902C0.307768 16.0387 0.279846 15.9961 0.25938 15.9639C0.249144 15.9478 0.240764 15.9342 0.234204 15.9234L0.22572 15.9094L0.222491 15.9039L0.221127 15.9016L0.220508 15.9006C0.220216 15.9001 0.219931 15.8996 1.08325 15.3949L0.219931 15.8996C0.127777 15.7419 0.0805494 15.5621 0.0833714 15.3795C0.149814 11.0805 1.19159 6.8528 3.13011 3.01516C3.19638 2.88396 3.29076 2.76899 3.40653 2.67842C5.21387 1.26452 7.41609 0.44749 9.70828 0.340459C10.1235 0.321069 10.5075 0.560604 10.6726 0.942098L10.9874 1.66924C11.6541 1.60134 12.3238 1.5654 12.9943 1.56161L13.0032 1.56156V1.5616C13.6782 1.56382 14.3525 1.59836 15.0238 1.66505L15.3394 0.935987ZM2.09001 15.0908C2.11857 15.1277 2.15139 15.1687 2.18859 15.2133C2.37813 15.4402 2.67867 15.7549 3.10472 16.0762C3.87995 16.6609 5.09014 17.2835 6.85461 17.4251C7.07566 17.1529 7.29173 16.8768 7.5027 16.5968C6.56652 16.2126 5.69635 15.7713 4.84723 15.3407C4.7822 15.3078 4.7173 15.2748 4.65251 15.242C4.15982 14.9925 3.96272 14.3908 4.21227 13.8981C4.46182 13.4054 5.06353 13.2083 5.55622 13.4578C5.59209 13.476 5.6279 13.4941 5.66365 13.5123C6.91031 14.1439 8.08191 14.7375 9.3607 15.1509C9.37888 15.1562 9.39696 15.162 9.41493 15.1683C10.4955 15.5125 11.6541 15.7271 12.9999 15.7271C15.9647 15.7271 18.021 14.6853 20.3362 13.5123C20.3719 13.4941 20.4077 13.476 20.4436 13.4578C20.9363 13.2083 21.538 13.4054 21.7876 13.8981C22.0371 14.3908 21.84 14.9925 21.3473 15.242C21.2825 15.2748 21.2176 15.3078 21.1526 15.3407C20.3062 15.7699 19.439 16.2098 18.5063 16.593C18.7151 16.8743 18.9293 17.1516 19.1486 17.4248C20.9112 17.2827 22.1204 16.6605 22.8951 16.0762C23.3212 15.7549 23.6217 15.4402 23.8113 15.2133C23.8485 15.1687 23.8814 15.1276 23.91 15.0906C23.8068 11.2848 22.8815 7.5459 21.1973 4.1307C19.9346 3.18489 18.449 2.5866 16.8888 2.39131L16.5637 3.1422C16.3856 3.55357 15.9556 3.79618 15.5114 3.73582C14.6794 3.62276 13.8408 3.56456 13.0011 3.5616C12.1655 3.56653 11.3312 3.62664 10.5035 3.74154C10.0585 3.80333 9.62684 3.56067 9.44833 3.14831L9.12249 2.39563C7.56356 2.58652 6.07796 3.17971 4.81364 4.12031C3.1241 7.53787 2.19506 11.2806 2.09001 15.0908ZM9.23983 9.12714C8.66146 9.12714 8.19261 9.59599 8.19261 10.1744C8.19261 10.7527 8.66146 11.2216 9.23983 11.2216C9.81819 11.2216 10.2871 10.7527 10.2871 10.1744C10.2871 9.59599 9.81819 9.12714 9.23983 9.12714ZM6.19261 10.1744C6.19261 8.49142 7.55689 7.12714 9.23983 7.12714C10.9228 7.12714 12.2871 8.49142 12.2871 10.1744C12.2871 11.8573 10.9228 13.2216 9.23983 13.2216C7.55689 13.2216 6.19261 11.8573 6.19261 10.1744ZM16.7602 9.12714C16.1819 9.12714 15.713 9.59599 15.713 10.1744C15.713 10.7527 16.1819 11.2216 16.7602 11.2216C17.3386 11.2216 17.8074 10.7527 17.8074 10.1744C17.8074 9.59599 17.3386 9.12714 16.7602 9.12714ZM13.713 10.1744C13.713 8.49142 15.0773 7.12714 16.7602 7.12714C18.4432 7.12714 19.8074 8.49143 19.8074 10.1744C19.8074 11.8573 18.4432 13.2216 16.7602 13.2216C15.0773 13.2216 13.713 11.8573 13.713 10.1744Z" fill="#00A3FF"/>
</svg>
