<?xml version="1.0" standalone="no"?>
<!DOCTYPE svg PUBLIC "-//W3C//DTD SVG 1.1//EN" "http://www.w3.org/Graphics/SVG/1.1/DTD/svg11.dtd" >
<svg xmlns="http://www.w3.org/2000/svg" xmlns:xlink="http://www.w3.org/1999/xlink" version="1.1">
<metadata></metadata>
<defs>
<font id="gelionblack" horiz-adv-x="1210" >
<font-face units-per-em="2048" ascent="1638" descent="-410" />
<missing-glyph horiz-adv-x="487" />
<glyph unicode="&#xfb01;" horiz-adv-x="1261" d="M20 668v262h127v18q0 223 141.5 356.5t393.5 133.5q227 0 365.5 -113t158.5 -301h-317q-16 63 -70.5 98t-130.5 35q-100 0 -161.5 -57.5t-61.5 -151.5v-18h745v-930h-315v668h-430v-668h-315l-3 668h-127z" />
<glyph unicode="&#xfb02;" horiz-adv-x="1331" d="M20 668v262h127v18q0 223 142.5 356.5t398.5 133.5t398.5 -133.5t142.5 -356.5v-948h-316l-2 948q0 94 -61.5 151.5t-161.5 57.5t-161.5 -57.5t-61.5 -151.5v-18h342v-262h-342v-668h-315l-3 668h-127z" />
<glyph horiz-adv-x="0" />
<glyph unicode="&#xd;" horiz-adv-x="380" />
<glyph unicode=" "  horiz-adv-x="487" />
<glyph unicode="&#x09;" horiz-adv-x="487" />
<glyph unicode="&#xa0;" horiz-adv-x="487" />
<glyph unicode="!" horiz-adv-x="663" d="M113 176q0 98 63.5 154.5t159.5 56.5q92 0 153.5 -56.5t61.5 -154.5q0 -94 -61.5 -151.5t-153.5 -57.5q-96 0 -159.5 57.5t-63.5 151.5zM160 1313h344l-62 -803h-219z" />
<glyph unicode="&#x22;" horiz-adv-x="845" d="M61 1178q0 71 44.5 117t113.5 46q68 0 112 -46t44 -117q0 -20 -6 -45l-109 -502h-86l-106 497q-6 37 -7 50zM471 1178q0 71 44 117t114 46q68 0 111.5 -46t43.5 -117q0 -20 -6 -45l-108 -502h-86l-107 497q-6 37 -6 50z" />
<glyph unicode="#" horiz-adv-x="1402" d="M63 297l62 303h164l22 113h-178l62 305h180l59 295h314l-62 -295h154l61 295h313l-59 -295h184l-61 -305h-186l-23 -113h211l-59 -303h-213l-62 -297h-315l61 297h-153l-62 -297h-311l61 297h-164zM600 600h154l24 113h-153z" />
<glyph unicode="$" horiz-adv-x="1216" d="M123 444h305q4 -70 52 -109.5t136 -39.5q80 0 120 31.5t40 83.5q0 37 -21.5 59.5t-48 33.5t-96.5 34l-118 38q-92 31 -158 62t-128.5 107.5t-62.5 201.5q0 160 102.5 263.5t282.5 121.5v199h162v-201q168 -23 267.5 -128t99.5 -263h-303q0 66 -43 105.5t-121 39.5 q-72 0 -108 -30.5t-36 -79.5q0 -55 48.5 -82t140.5 -53l151 -45q156 -45 232 -141.5t76 -223.5q0 -164 -113 -264.5t-291 -118.5v-197h-162v197q-178 23 -288.5 128.5t-116.5 270.5z" />
<glyph unicode="%" horiz-adv-x="1579" d="M80 1104q0 80 40 150.5t112.5 113.5t164.5 43q94 0 168 -42t114 -112.5t40 -152.5q0 -80 -39 -149.5t-110.5 -111.5t-166.5 -42q-96 0 -169.5 42t-113.5 111.5t-40 149.5zM164 0l1044 1376h219l-1044 -1376h-219zM283 1106q0 -49 33.5 -82t84.5 -33t82 33t31 80t-31.5 81 t-83.5 34q-53 0 -84.5 -33t-31.5 -80zM860 270q0 80 39 151t111.5 114t167.5 43q94 0 167.5 -42t113.5 -113t40 -153q0 -80 -39 -149.5t-111.5 -110.5t-166.5 -41q-96 0 -169 41t-113 110.5t-40 149.5zM1063 272q0 -49 33.5 -80.5t83.5 -31.5q51 0 81.5 31.5t30.5 78.5 q0 49 -30.5 82t-83.5 33q-51 0 -83 -33t-32 -80z" />
<glyph unicode="&#x26;" horiz-adv-x="1546" d="M147 330q0 90 39 160.5t78 106.5t88 73l41 28l-43 47q-43 47 -78.5 108.5t-35.5 154.5q0 96 52 171.5t146 118.5t215 43q182 0 296 -89t114 -232q0 -90 -47 -165t-140 -142l-51 -37l135 -150q14 43 19.5 87t5.5 104h428v-242h-164q-23 -117 -69 -188l262 -289h-408 l-63 72q-70 -45 -168.5 -67.5t-206.5 -22.5q-199 0 -322 95t-123 255zM494 375q0 -55 40.5 -88t110.5 -33q74 0 127 29l-203 223l-18 -14q-57 -47 -57 -117zM553 1012q0 -53 32.5 -83t37.5 -34l20 -23l29 25q27 23 48 50.5t21 64.5t-23.5 62.5t-70.5 25.5q-45 0 -69.5 -26.5 t-24.5 -61.5z" />
<glyph unicode="'" horiz-adv-x="436" d="M61 1178q0 71 44.5 117t113.5 46q68 0 112 -46t44 -117q0 -20 -6 -45l-109 -502h-86l-106 497q-6 37 -7 50z" />
<glyph unicode="(" horiz-adv-x="661" d="M70 504q0 260 91 502.5t263 406.5h238q-125 -160 -199 -398.5t-74 -510.5q0 -246 68.5 -487.5t204.5 -417.5h-238q-164 154 -259 391t-95 514z" />
<glyph unicode=")" horiz-adv-x="655" d="M0 -401q137 176 204.5 416.5t67.5 488.5q0 266 -72.5 507.5t-199.5 401.5h238q172 -164 263 -406.5t91 -502.5q0 -276 -95.5 -514t-258.5 -391h-238z" />
<glyph unicode="*" horiz-adv-x="786" d="M33 901l117 68q55 31 133 57q-76 20 -133 55l-117 70l71 123l117 -68q68 -37 117 -86q-16 78 -16 146v135h143v-135q0 -68 -16 -146q49 49 116 86l117 68l72 -123l-117 -70q-57 -35 -133 -55q78 -26 133 -57l117 -68l-72 -125l-117 68q-68 41 -116 86q16 -78 16 -144 v-137h-143v137q0 66 16 144q-49 -45 -117 -86l-117 -68z" />
<glyph unicode="+" horiz-adv-x="1224" d="M170 502v237h313v334h262v-334h310v-237h-310v-330h-262v330h-313z" />
<glyph unicode="," horiz-adv-x="516" d="M53 158q0 76 51.5 125t131.5 49q88 0 145 -58.5t57 -150.5q0 -104 -49 -187t-133 -132.5t-188 -55.5v84q100 10 152 59.5t54 116.5q-20 -10 -55 -10q-74 0 -120 43t-46 117z" />
<glyph unicode="-" horiz-adv-x="1243" d="M147 358v279h949v-279h-949z" />
<glyph unicode="." horiz-adv-x="483" d="M57 152q0 74 51.5 127t133.5 53q80 0 132 -53.5t52 -126.5q0 -72 -52 -125.5t-132 -53.5q-82 0 -133.5 52.5t-51.5 126.5z" />
<glyph unicode="/" horiz-adv-x="948" d="M61 0l512 1313h314l-512 -1313h-314z" />
<glyph unicode="0" horiz-adv-x="1196" d="M57 655q0 209 64.5 362.5t186.5 237.5t288 84t288 -84t188.5 -238.5t66.5 -361.5t-66.5 -359.5t-189.5 -235.5t-287 -83q-166 0 -287 83t-186.5 236t-65.5 359zM385 655q0 -188 54.5 -290.5t158.5 -102.5t157.5 102.5t53.5 290.5q0 193 -53.5 294.5t-157.5 101.5 t-158.5 -101.5t-54.5 -294.5z" />
<glyph unicode="1" horiz-adv-x="870" d="M61 825v244q193 0 283 62.5t113 181.5h286v-1313h-323v825h-359z" />
<glyph unicode="2" horiz-adv-x="1085" d="M72 881q-6 137 55 240.5t175 160.5t259 57q205 0 330 -111.5t125 -299.5q0 -129 -50.5 -216t-129.5 -175l-232 -250h404v-287h-883v227l469 484q45 45 70.5 89t25.5 101q0 70 -40 109t-107 39q-76 0 -118 -46.5t-36 -121.5h-317z" />
<glyph unicode="3" horiz-adv-x="1120" d="M61 436h318q0 -78 50 -125t132 -47q78 0 127 44t49 122t-51 121t-137 43h-139h-80v211l239 231h-436v277h852v-254l-250 -248q150 -25 238 -129t88 -258q0 -129 -64.5 -230.5t-179.5 -157.5t-262 -56q-145 0 -259 56t-176.5 159.5t-58.5 240.5z" />
<glyph unicode="4" horiz-adv-x="1155" d="M41 256v240l516 817h387v-791h170v-266h-170v-256h-313v256h-590zM385 522h246v391z" />
<glyph unicode="5" horiz-adv-x="1173" d="M74 438h317q0 -76 52.5 -124t131.5 -48q84 0 140.5 50.5t56.5 132.5q0 78 -54 129t-143 51q-53 0 -100 -20.5t-74 -53.5l-309 31l170 727h744v-277h-500l-47 -174q70 31 178 31q135 0 240.5 -58.5t164 -161t58.5 -229.5q0 -135 -68.5 -240.5t-188.5 -163.5t-265 -58 t-260 57t-179.5 160.5t-64.5 238.5z" />
<glyph unicode="6" horiz-adv-x="1196" d="M70 442q0 127 54 238t148 240l283 393h350l-305 -418q14 2 43 2q135 0 244.5 -55.5t174 -155.5t64.5 -233q0 -135 -67.5 -244t-190.5 -169t-280 -60q-158 0 -275.5 61t-180 166.5t-62.5 234.5zM397 446q0 -84 59.5 -133t141.5 -49t141.5 48t59.5 132t-58.5 132.5 t-140.5 48.5q-84 0 -143.5 -47.5t-59.5 -131.5z" />
<glyph unicode="7" horiz-adv-x="970" d="M23 1036v277h925v-250l-491 -1063h-344l479 1036h-569z" />
<glyph unicode="8" horiz-adv-x="1118" d="M59 395q0 106 47.5 187.5t129.5 119.5q-59 45 -97.5 117t-38.5 152q0 104 58.5 188t164 132t238.5 48t238.5 -48t164 -133t58.5 -189q0 -84 -40 -155t-103 -114q84 -38 132 -119t48 -186q0 -127 -64.5 -221t-178.5 -143t-257 -49q-145 0 -258 49t-177.5 143t-64.5 221z M385 410q0 -63 48 -104.5t124 -41.5q78 0 126 41t48 105q0 63 -47 103t-123 40q-80 0 -128 -40t-48 -103zM420 940q0 -55 43 -89t98 -34t98 35t43 88t-39.5 87t-103.5 34q-61 0 -100 -34t-39 -87z" />
<glyph unicode="9" horiz-adv-x="1196" d="M70 860q0 139 68.5 248t190.5 169t275 60q160 0 278.5 -62.5t181 -169t62.5 -233.5q0 -90 -29.5 -173t-67.5 -143t-107 -159l-281 -397h-352l307 416q-14 -2 -43 -2q-135 0 -245.5 56t-174 157.5t-63.5 232.5zM395 870q0 -84 58.5 -132t142.5 -48q86 0 143.5 47t57.5 129 q0 84 -59.5 132.5t-141.5 48.5t-141.5 -46.5t-59.5 -130.5z" />
<glyph unicode=":" horiz-adv-x="647" d="M143 166q0 72 53.5 125t127.5 53q72 0 126 -53t54 -125t-54.5 -124t-125.5 -52q-76 0 -128.5 52t-52.5 124zM143 762q0 72 53.5 125t127.5 53q72 0 126 -53t54 -125t-54.5 -124t-125.5 -52q-72 0 -126.5 52t-54.5 124z" />
<glyph unicode=";" horiz-adv-x="632" d="M131 158q0 78 51 127t133 49q88 0 144.5 -58.5t56.5 -152.5q0 -104 -49 -187t-133 -132.5t-189 -55.5v84q98 10 151.5 60.5t55.5 115.5q-27 -10 -55 -10q-74 0 -120 43t-46 117zM143 762q0 76 52.5 127t130.5 51q74 0 127 -52t53 -126t-53.5 -125t-126.5 -51 q-76 0 -129.5 51t-53.5 125z" />
<glyph unicode="&#x3c;" horiz-adv-x="817" d="M66 301v336l682 315v-352l-328 -131l328 -133v-350z" />
<glyph unicode="=" horiz-adv-x="1140" d="M201 246v262h739v-262h-739zM201 719v260h739v-260h-739z" />
<glyph unicode="&#x3e;" horiz-adv-x="833" d="M70 -14v350l327 133l-327 131v352l682 -315v-336z" />
<glyph unicode="?" horiz-adv-x="1038" d="M74 934q-4 109 49 202t157.5 148t247.5 55q125 0 224.5 -43t156 -120.5t56.5 -180.5q0 -76 -29 -136t-69 -102t-105 -100q-68 -59 -99.5 -96t-37.5 -82v-14h-295v14q0 102 50 171t144 151q63 53 95 92t32 84q0 43 -36.5 72.5t-94.5 29.5q-72 0 -112.5 -42t-36.5 -103 h-297zM279 166q0 88 57 139t145 51q86 0 143.5 -51t57.5 -139t-56.5 -138.5t-144.5 -50.5t-145 50.5t-57 138.5z" />
<glyph unicode="@" horiz-adv-x="1964" d="M113 487q0 252 115.5 445.5t314 300t440.5 106.5q238 0 437.5 -105.5t315 -293.5t115.5 -424q0 -145 -52 -259t-148.5 -177.5t-223.5 -63.5q-133 0 -206.5 67t-92.5 155q-37 -47 -97 -73t-134 -26q-152 0 -246 99.5t-94 259.5q0 106 45 189t126 130t185 47 q72 0 133.5 -25.5t98.5 -70.5l10 76h188v-510q0 -51 29 -81t70 -30q82 0 124 76t42 207q0 182 -79 321.5t-220.5 216t-325.5 76.5q-182 0 -325.5 -79.5t-223.5 -223t-80 -330.5q0 -186 80 -331.5t222.5 -225.5t326.5 -80q197 0 352 97l105 -199q-207 -115 -457 -115 q-246 0 -444.5 107.5t-312 301.5t-113.5 445zM774 502q0 -80 49 -130t127 -50q74 0 122 49t48 129t-48 130t-122 50q-80 0 -128 -50t-48 -128z" />
<glyph unicode="A" horiz-adv-x="1318" d="M14 0l490 1313h315l486 -1313h-353l-90 256h-409l-93 -256h-346zM549 532h219l-33 93l-51 161l-22 70q-6 -27 -30 -95.5t-48 -135.5z" />
<glyph unicode="B" horiz-adv-x="1241" d="M137 0v1313h570q215 0 336.5 -99.5t121.5 -265.5q0 -117 -58 -190.5t-159 -106.5q105 -35 168.5 -109.5t63.5 -195.5q0 -168 -127 -257t-351 -89h-565zM465 279h242q63 0 104 33.5t41 88.5t-42 94.5t-103 39.5h-242v-256zM465 772h223q74 0 110 40t36 89q0 47 -35 90 t-109 43h-225v-262z" />
<glyph unicode="C" horiz-adv-x="1490" d="M61 659q0 203 87.5 357.5t247 239.5t366.5 85q176 0 320.5 -61t236.5 -177t111 -272h-369q-18 90 -101 146.5t-202 56.5q-162 0 -254 -103.5t-92 -275.5q0 -176 95 -275t251 -99q115 0 197.5 56t105.5 148h369q-16 -152 -105.5 -267.5t-235 -180t-327.5 -64.5 q-203 0 -362.5 84t-249 240t-89.5 362z" />
<glyph unicode="D" horiz-adv-x="1421" d="M137 0v1313h561q189 0 340.5 -85t236.5 -236.5t85 -340.5q0 -188 -84 -335.5t-234.5 -231.5t-343.5 -84h-561zM469 299h197q159 0 251.5 97.5t92.5 254.5q0 164 -93.5 263.5t-250.5 99.5h-197v-715z" />
<glyph unicode="E" horiz-adv-x="1122" d="M137 0v1313h883v-299h-551v-205h487v-289h-487v-221h551v-299h-883z" />
<glyph unicode="F" horiz-adv-x="1087" d="M137 0v1313h891v-299h-559v-226h471l-2 -288h-469v-500h-332z" />
<glyph unicode="G" horiz-adv-x="1482" d="M61 647q0 203 88.5 360.5t247 245.5t363.5 88q172 0 309 -61t223 -171t109 -251h-352q-29 84 -108 130t-187 46q-164 0 -256 -104.5t-92 -278.5q0 -176 93 -273t251 -97q113 0 197.5 46t111.5 126h-311v282h673v-151q0 -180 -87 -319.5t-240.5 -215.5t-348.5 -76 q-205 0 -359.5 84t-239.5 236.5t-85 353.5z" />
<glyph unicode="H" horiz-adv-x="1390" d="M137 0v1313h332v-508h471v508h334v-1313h-334v516h-471v-516h-332z" />
<glyph unicode="I" horiz-adv-x="585" d="M137 0v1313h332v-1313h-332z" />
<glyph unicode="J" horiz-adv-x="1083" d="M33 395v82h319v-69q0 -63 38 -99.5t99 -36.5q66 0 102 37t36 99v606h-355v299h686v-918q0 -125 -58 -221t-163.5 -148.5t-242.5 -52.5t-242 52.5t-162 148.5t-57 221z" />
<glyph unicode="K" horiz-adv-x="1339" d="M137 -6v1319h332v-565l440 565h414l-444 -565l448 -748h-397l-281 459l-180 -230v-235h-332z" />
<glyph unicode="L" horiz-adv-x="1054" d="M137 0v1313h336v-1014h535v-299h-871z" />
<glyph unicode="M" horiz-adv-x="1622" d="M137 0v1313h289l381 -907l389 907h291v-1313h-324v94q0 264 23 471l-246 -528h-293l-219 514q25 -262 25 -457v-94h-316z" />
<glyph unicode="N" horiz-adv-x="1409" d="M137 0v1313h307l502 -742v742h328v-1313h-307l-502 737v-737h-328z" />
<glyph unicode="O" horiz-adv-x="1552" d="M61 655q0 201 90.5 357.5t253 242.5t371.5 86q207 0 370 -86t254 -240.5t91 -357.5q0 -202 -91 -357t-254 -241t-372 -86q-207 0 -368.5 85t-253 240t-91.5 357zM412 655q0 -170 100 -272t264 -102q162 0 262.5 103t100.5 273t-99.5 273.5t-261.5 103.5 q-164 0 -265 -104.5t-101 -274.5z" />
<glyph unicode="P" horiz-adv-x="1218" d="M137 0v1313h568q221 0 346 -119t125 -326q0 -201 -127 -322.5t-351 -121.5h-229v-424h-332zM469 707h168q98 0 143 50t45 117q0 55 -45 103.5t-143 48.5h-168v-319z" />
<glyph unicode="Q" horiz-adv-x="1552" d="M61 655q0 201 90.5 357.5t253 242.5t371.5 86q207 0 370 -86t254 -240.5t91 -357.5q0 -176 -69.5 -317t-196.5 -232.5t-295 -119.5v-47q0 -41 7 -69t38 -47.5t96 -19.5q45 0 82 7v-261q-94 -20 -170 -20q-369 0 -369 350v107q-166 31 -290.5 122t-193.5 231t-69 314z M412 655q0 -170 100 -272t264 -102q162 0 262.5 103t100.5 273t-99.5 273.5t-261.5 103.5q-164 0 -265 -104.5t-101 -274.5z" />
<glyph unicode="R" horiz-adv-x="1286" d="M137 0v1313h533q538 0 538 -434q0 -133 -55 -229.5t-160 -149.5l232 -500h-373l-190 442h-193v-442h-332zM469 725h199q98 0 144 44t46 108q0 61 -44 105t-144 44h-201v-301z" />
<glyph unicode="S" d="M63 403h340q6 -72 62.5 -111.5t150.5 -39.5q84 0 131.5 31.5t47.5 89.5q0 43 -28 67.5t-87 38.5l-215 49q-365 84 -365 387q0 129 62.5 225.5t177.5 148.5t264 52q147 0 262 -51t178.5 -144t65.5 -216h-342q-2 61 -54 97t-128 36q-66 0 -105 -28.5t-39 -78.5 q0 -43 35 -67.5t109 -40.5l202 -45q188 -43 273.5 -146.5t85.5 -246.5q0 -133 -65.5 -231.5t-186.5 -152t-281 -53.5q-242 0 -390 116t-161 314z" />
<glyph unicode="T" horiz-adv-x="1179" d="M35 1014v299h1110v-299h-387v-1014h-332v1014h-391z" />
<glyph unicode="U" horiz-adv-x="1433" d="M129 498v815h332v-801q0 -119 68.5 -180.5t185.5 -61.5q129 0 193.5 64.5t64.5 177.5v801h332v-815q0 -248 -160 -386.5t-430 -138.5q-184 0 -316.5 64.5t-201 183.5t-68.5 277z" />
<glyph unicode="V" horiz-adv-x="1411" d="M16 1313h365l149 -381q18 -49 87 -252t92 -274q25 70 93 272.5t89 255.5l147 379h357l-514 -1313h-340z" />
<glyph unicode="W" horiz-adv-x="1986" d="M20 1313h357l110 -357q53 -174 83 -295.5t30 -132.5l213 750h365l213 -750q0 10 28.5 131t83.5 297l111 357h356l-422 -1313h-323l-78 258q-47 152 -93 321t-59 220q-12 -51 -57 -220t-92 -321l-80 -258h-324z" />
<glyph unicode="X" horiz-adv-x="1427" d="M33 0l473 655l-473 658h434l86 -127q29 -43 89 -147.5t81 -139.5l250 414h422l-465 -658l463 -657h-430l-54 82q-59 90 -114.5 188.5t-69.5 126.5l-274 -395h-418z" />
<glyph unicode="Y" horiz-adv-x="1325" d="M16 1313h385l119 -207q57 -100 97 -178t51 -99q10 20 50 99.5t97 177.5l121 207h373l-480 -809v-504h-333v504z" />
<glyph unicode="Z" horiz-adv-x="1138" d="M70 0v268l563 746h-551v299h987v-254l-563 -760h555v-299h-991z" />
<glyph unicode="[" horiz-adv-x="632" d="M152 -227v1804h471v-236h-207v-1333h207v-235h-471z" />
<glyph unicode="\" horiz-adv-x="849" d="M0 1313h315l535 -1313h-313z" />
<glyph unicode="]" horiz-adv-x="630" d="M10 8h207v1333h-207v236h471v-1804h-471v235z" />
<glyph unicode="^" horiz-adv-x="1021" d="M145 887l234 426h264l234 -426h-265l-100 184l-100 -184h-267z" />
<glyph unicode="_" horiz-adv-x="823" d="M-4 -29h831v-219h-831v219z" />
<glyph unicode="`" horiz-adv-x="806" d="M168 1714l147 152l347 -365l-93 -96z" />
<glyph unicode="a" d="M61 457q0 150 58.5 264.5t165 178t245.5 63.5q193 0 293 -113l21 80h264v-930h-305v92q-47 -55 -128 -87t-175 -32q-129 0 -228.5 60.5t-155 170t-55.5 253.5zM385 469q0 -92 55.5 -150.5t145.5 -58.5t147.5 57.5t57.5 151.5t-57.5 151.5t-147.5 57.5t-145.5 -58.5 t-55.5 -150.5z" />
<glyph unicode="b" d="M102 0v1405h318v-528q96 86 268 86q133 0 238.5 -62.5t164 -175.5t58.5 -258t-58.5 -258t-163 -174.5t-239.5 -61.5q-96 0 -177 33t-128 92l-16 -98h-265zM420 469q0 -94 57.5 -151.5t147.5 -57.5t145 58.5t55 150.5t-55 150.5t-145 58.5t-147.5 -57.5t-57.5 -151.5z" />
<glyph unicode="c" horiz-adv-x="1118" d="M61 467q0 147 63.5 260t179.5 174.5t265 61.5q137 0 246 -51.5t172.5 -145.5t69.5 -215h-324q-14 66 -60 98.5t-108 32.5q-82 0 -131 -59.5t-49 -157.5q0 -96 49 -154.5t131 -58.5q66 0 112 36t56 93h324q-8 -121 -72.5 -213t-172 -143.5t-243.5 -51.5 q-150 0 -265.5 61.5t-179 173t-63.5 259.5z" />
<glyph unicode="d" horiz-adv-x="1200" d="M61 467q0 145 58.5 258t164 175.5t238.5 62.5q172 0 269 -86v528h317v-1405h-264l-17 98q-47 -59 -128 -92t-177 -33q-135 0 -239.5 61.5t-163 174.5t-58.5 258zM385 469q0 -92 55.5 -150.5t145.5 -58.5t147.5 57.5t57.5 151.5t-57.5 151.5t-147.5 57.5t-145.5 -58.5 t-55.5 -150.5z" />
<glyph unicode="e" horiz-adv-x="1077" d="M61 469q0 150 62.5 261.5t174.5 172t255 60.5q141 0 248.5 -57.5t167 -160t59.5 -233.5q0 -78 -12 -131h-641q4 -68 54 -110t130 -42q59 0 102.5 20.5t61.5 55.5h307q-29 -149 -159 -240.5t-312 -91.5q-147 0 -260 62.5t-175.5 175.5t-62.5 258zM379 586h323 q-2 55 -47 87t-114 32q-68 0 -113 -32t-49 -87z" />
<glyph unicode="f" horiz-adv-x="759" d="M20 668v262h170v110q0 197 106.5 288t297.5 91q70 0 135 -14v-260q-18 6 -67 6q-101 0 -128.5 -46t-27.5 -112v-63h223v-262h-223v-668h-316v668h-170z" />
<glyph unicode="g" horiz-adv-x="1191" d="M61 477q0 145 59.5 255t162 170.5t227.5 60.5q90 0 165 -31t113 -82l15 80h297v-934q0 -141 -62.5 -248.5t-181.5 -166t-283 -58.5q-141 0 -253.5 52t-180 146.5t-76.5 217.5h316q12 -70 65.5 -104t128.5 -34q98 0 152.5 49.5t54.5 131.5v127q-39 -45 -111.5 -74 t-160.5 -29q-127 0 -228.5 58.5t-160 165t-58.5 247.5zM385 485q0 -92 55.5 -148t137.5 -56q81 0 139.5 57t58.5 147q0 92 -59.5 147.5t-141.5 55.5q-84 0 -137 -56.5t-53 -146.5z" />
<glyph unicode="h" horiz-adv-x="1124" d="M102 0v1405h318v-557q41 55 111.5 85t154.5 30q170 0 258 -104.5t88 -280.5v-578h-317v502q0 109 -47 141.5t-93 32.5q-158 0 -157 -168v-508h-316z" />
<glyph unicode="i" horiz-adv-x="518" d="M51 1239q0 84 60.5 141.5t148.5 57.5t147.5 -57.5t59.5 -141.5q0 -82 -59.5 -140.5t-147.5 -58.5t-148.5 58.5t-60.5 140.5zM100 0v930h318v-930h-318z" />
<glyph unicode="j" horiz-adv-x="518" d="M51 1239q0 84 60.5 141.5t148.5 57.5t147.5 -57.5t59.5 -141.5q0 -82 -59.5 -140.5t-147.5 -58.5t-148.5 58.5t-60.5 140.5zM100 930h318v-1374h-316z" />
<glyph unicode="k" horiz-adv-x="1103" d="M102 0v1405h318v-787l280 312h394l-332 -344l311 -586h-360l-178 348l-115 -119v-229h-318z" />
<glyph unicode="l" horiz-adv-x="522" d="M102 0v1405h318v-1405h-318z" />
<glyph unicode="m" horiz-adv-x="1701" d="M102 0v930h295l13 -82q43 53 112.5 84t145.5 31q98 0 177 -43t120 -115q43 76 119.5 117t181.5 41q151 0 247.5 -98.5t96.5 -254.5v-610h-318v530q0 74 -36.5 116t-94.5 42q-70 0 -109.5 -46t-39.5 -128v-514h-312v530q0 74 -36.5 115t-100.5 41q-66 0 -104.5 -47 t-38.5 -125v-514h-318z" />
<glyph unicode="n" horiz-adv-x="1114" d="M102 0v930h265l16 -94q43 59 120 93t167 34q166 0 259 -105.5t93 -279.5v-578h-317v502q0 174 -142 174q-145 0 -145 -168v-508h-316z" />
<glyph unicode="o" horiz-adv-x="1163" d="M61 467q0 145 66 258t183.5 175.5t271.5 62.5t271.5 -62.5t183 -175.5t65.5 -258t-65.5 -257t-183.5 -174.5t-271 -62.5q-154 0 -271.5 62.5t-183.5 174.5t-66 257zM385 469q0 -94 54.5 -154.5t142.5 -60.5t142 60.5t54 154.5t-54 152.5t-142 58.5t-142.5 -58.5 t-54.5 -152.5z" />
<glyph unicode="p" d="M102 -444v1374h265l16 -94q47 61 127 94t178 33q135 0 239.5 -61.5t163 -174.5t58.5 -258t-58.5 -258t-164 -175.5t-238.5 -62.5q-172 0 -268 86v-503h-318zM420 467q0 -94 57.5 -151.5t147.5 -57.5t145 58.5t55 150.5t-55 150.5t-145 58.5t-147.5 -57.5t-57.5 -151.5z " />
<glyph unicode="q" horiz-adv-x="1200" d="M61 469q0 145 58.5 258t163 174.5t239.5 61.5q98 0 178 -33t127 -94l17 94h264v-1374h-317v510q-49 -45 -119 -69t-150 -24q-137 0 -241.5 61.5t-162 174.5t-57.5 260zM385 467q0 -92 55.5 -150.5t145.5 -58.5t147.5 57.5t57.5 151.5t-57.5 151.5t-147.5 57.5 t-145.5 -58.5t-55.5 -150.5z" />
<glyph unicode="r" horiz-adv-x="743" d="M102 0v930h291l21 -119q23 63 80 95t135 32q47 0 84 -8v-277l-39 2q-123 0 -188.5 -62.5t-65.5 -176.5v-416h-318z" />
<glyph unicode="s" horiz-adv-x="958" d="M61 291h314q2 -41 31.5 -63.5t76.5 -22.5q39 0 62.5 14t23.5 43q0 27 -17 38t-52 19l-144 35q-274 66 -274 287q0 145 110.5 233.5t288.5 88.5q174 0 282.5 -86t113.5 -226h-312q0 35 -25.5 55.5t-66.5 20.5q-33 0 -52.5 -14.5t-19.5 -40.5q0 -25 16.5 -35t61.5 -21 l170 -41q127 -31 187.5 -104.5t60.5 -175.5q0 -147 -112.5 -234.5t-299.5 -87.5q-182 0 -296.5 85t-127.5 233z" />
<glyph unicode="t" horiz-adv-x="700" d="M20 668v262h170v239h318v-239h172v-262h-172v-668h-318v668h-170z" />
<glyph unicode="u" horiz-adv-x="1095" d="M92 344v586h318v-539q0 -143 139 -143q66 0 101.5 39t35.5 106v537h318v-930h-265l-16 98q-100 -125 -283 -125q-168 0 -258 100.5t-90 270.5z" />
<glyph unicode="v" horiz-adv-x="1101" d="M20 930h342l91 -273q31 -94 57.5 -191t34.5 -126q10 31 43 132t63 185l103 273h327l-389 -930h-311z" />
<glyph unicode="w" horiz-adv-x="1611" d="M31 930h344l49 -187q57 -221 78 -321q113 412 139 489h336q16 -59 51 -195t76 -317q29 129 88 344l51 187h338l-332 -930h-307q-43 152 -81 298t-54 218q-16 -70 -55 -215t-86 -301h-324z" />
<glyph unicode="x" horiz-adv-x="1050" d="M20 930h365l154 -264l139 264h352l-303 -475l291 -455h-363q-100 176 -139 248l-135 -248h-344l293 449z" />
<glyph unicode="y" horiz-adv-x="1136" d="M20 930h345l200 -568l215 568h336l-432 -1071q-35 -86 -78 -151.5t-130 -118t-222 -52.5q-80 0 -199 25l4 258q82 -14 140 -15q72 0 112.5 19.5t59 48.5t37.5 76l10 26z" />
<glyph unicode="z" horiz-adv-x="937" d="M72 0v281l393 370h-393v279h794v-283l-407 -364h407v-283h-794z" />
<glyph unicode="{" horiz-adv-x="727" d="M102 575v209q104 2 145.5 63.5t41.5 203.5v188q0 213 110.5 309.5t307.5 91.5v-217q-86 0 -122 -51t-36 -149v-240q0 -111 -33 -184.5t-115 -118.5q82 -45 115 -119t33 -184v-240q0 -109 41 -154.5t117 -45.5v-218q-217 -4 -317.5 101.5t-100.5 300.5v188 q0 141 -41 202.5t-146 63.5z" />
<glyph unicode="|" horiz-adv-x="733" d="M246 -160v1557h241v-1557h-241z" />
<glyph unicode="}" horiz-adv-x="727" d="M20 -63q76 0 117 46t41 154v240q0 111 33 184.5t115 118.5q-82 45 -115 118.5t-33 184.5v240q0 98 -36 149t-122 51v217q197 4 307.5 -92t110.5 -309v-188q0 -142 41 -203.5t146 -63.5v-209q-104 -2 -145.5 -63t-41.5 -203v-188q0 -195 -100 -300.5t-318 -101.5v218z" />
<glyph unicode="~" horiz-adv-x="899" d="M55 461q0 125 69 198.5t171 73.5q59 0 103 -23.5t102 -66.5q37 -33 64.5 -48t56.5 -15q66 0 65 86q0 23 -2 36h160q2 -16 2 -45q0 -131 -69.5 -203.5t-172.5 -72.5q-61 0 -107 23.5t-102 66.5q-39 31 -63.5 45t-50.5 14q-29 0 -47.5 -20.5t-18.5 -63.5q0 -18 2 -30h-160 q-2 16 -2 45z" />
<glyph unicode="&#xa1;" horiz-adv-x="663" d="M113 1137q0 94 63.5 151.5t159.5 57.5q92 0 153.5 -57.5t61.5 -151.5q0 -98 -61.5 -154.5t-153.5 -56.5q-96 0 -159.5 56t-63.5 155zM160 0l53 803h240l51 -803h-344z" />
<glyph unicode="&#xa2;" horiz-adv-x="1302" d="M154 684q0 197 109.5 328t295.5 159v205h184v-200q176 -23 287 -132.5t119 -275.5h-324q-14 66 -60 98.5t-108 32.5q-82 0 -131 -59.5t-49 -157.5q0 -96 49 -154.5t131 -58.5q66 0 112 36t56 93h324q-12 -164 -121.5 -272.5t-284.5 -130.5v-195h-184v199 q-186 29 -295.5 159.5t-109.5 325.5z" />
<glyph unicode="&#xa3;" horiz-adv-x="1400" d="M152 0v270q84 0 135 56.5t51 146.5q0 29 -2 41h-184v229h106q-18 70 -18 131q0 139 65.5 245t182 163t268.5 57q150 0 262 -56t174.5 -159.5t62.5 -236.5h-307q2 78 -54 126t-146 48q-88 0 -144.5 -52.5t-56.5 -138.5q0 -61 28 -127h334v-229h-266v-2q0 -78 -31.5 -140.5 t-87.5 -101.5l469 -2v205h275v-473h-1116z" />
<glyph unicode="&#xa4;" horiz-adv-x="1456" d="M111 287l153 137q-72 123 -71 266q0 143 71 271l-153 137l202 205l138 -150q129 78 278 78q147 0 277 -78l137 150l203 -205l-154 -135q76 -123 76 -273q0 -145 -74 -270l152 -133l-203 -205l-137 149q-127 -78 -277 -77q-150 0 -278 77l-138 -149zM477 690 q0 -66 34 -124t92.5 -92t125.5 -34q66 0 124 34t92 92.5t34 123.5q0 104 -74 178t-176 74q-104 0 -178 -73.5t-74 -178.5z" />
<glyph unicode="&#xa5;" horiz-adv-x="1622" d="M154 1313h378l279 -484l276 484h381l-358 -522h164v-228h-307v-104h307v-226h-307v-233h-316v233h-309v226h309v104h-309v228h170z" />
<glyph unicode="&#xa6;" horiz-adv-x="757" d="M246 -123v596h266v-596h-266zM246 821v578h266v-578h-266z" />
<glyph unicode="&#xa7;" horiz-adv-x="1103" d="M117 920q0 154 117.5 244.5t306.5 90.5q197 0 313.5 -97t116.5 -259h-297q2 66 -38 99.5t-99 33.5q-53 0 -86 -27.5t-33 -74.5q0 -41 23.5 -63.5t47 -30t86.5 -23.5l119 -31q96 -25 180 -89t84 -199q0 -92 -47 -159t-131 -99q102 -39 154.5 -110t52.5 -169 q0 -154 -118.5 -245t-305.5 -91q-129 0 -226 45t-150.5 126t-53.5 188h295q-2 -66 38 -100t97 -34t90 30t33 77q0 49 -34 69.5t-71.5 28.5t-52.5 12l-118 33q-264 72 -265 291q0 90 46.5 155.5t132.5 100.5q-102 39 -154.5 108.5t-52.5 168.5zM422 440q0 -45 37 -65.5 t96 -20.5q63 0 95 22.5t32 63.5q0 43 -37 63.5t-96 20.5q-63 0 -95 -22.5t-32 -61.5z" />
<glyph unicode="&#xa8;" horiz-adv-x="909" d="M82 1552q0 66 43 107t106 41t105.5 -41t42.5 -107q0 -63 -42 -105t-106 -42q-63 0 -106 42t-43 105zM510 1552q0 66 43 107t106 41t105.5 -41t42.5 -107q0 -63 -42 -105t-106 -42q-63 0 -106 42t-43 105z" />
<glyph unicode="&#xa9;" horiz-adv-x="1368" d="M139 688q0 152 72 274.5t196.5 193.5t278.5 71t277.5 -71t194.5 -193.5t71 -274.5q0 -150 -71 -272.5t-194.5 -193t-277.5 -70.5t-278.5 70.5t-196.5 192.5t-72 273zM283 688q0 -113 52 -205t144 -144t207 -52t206 52t142 144t51 205q0 115 -51 207t-142 144.5t-206 52.5 q-117 0 -208 -52.5t-143 -144.5t-52 -207zM446 688q0 113 69 181.5t177 68.5q88 0 151.5 -49t78.5 -127h-138q-8 29 -33.5 45t-58.5 16q-49 0 -79.5 -37.5t-30.5 -97.5q0 -57 30.5 -93t79.5 -36q33 0 58.5 14.5t33.5 44.5h138q-14 -78 -78 -127t-152 -49q-109 0 -177.5 69 t-68.5 177z" />
<glyph unicode="&#xab;" horiz-adv-x="1224" d="M123 465l223 393h350l-223 -393l223 -395h-350zM614 465l222 393h350l-221 -393l221 -395h-350z" />
<glyph unicode="&#xac;" horiz-adv-x="1236" d="M100 426v338h1037v-547h-338v209h-699z" />
<glyph unicode="&#xad;" horiz-adv-x="1243" d="M147 358v279h949v-279h-949z" />
<glyph unicode="&#xae;" horiz-adv-x="1112" d="M63 858q0 141 66 251t179.5 170t252.5 60q135 0 247 -60t176.5 -170t64.5 -251q0 -143 -64.5 -253.5t-175.5 -171t-248 -60.5q-139 0 -252.5 60.5t-179.5 171t-66 253.5zM193 856q0 -109 47 -190.5t131 -127.5t188 -46q103 0 185.5 45t130 128t47.5 191q0 106 -47.5 189 t-130 128.5t-185.5 45.5q-104 0 -188 -45.5t-131 -128t-47 -189.5zM389 655v402h203q72 0 112.5 -38t40.5 -101q1 -88 -73 -121l67 -142h-114l-56 125h-71v-125h-109zM498 881h80q49 0 49 37t-49 36h-80v-73z" />
<glyph unicode="&#xaf;" horiz-adv-x="903" d="M164 1417v207h604v-207h-604z" />
<glyph unicode="&#xb0;" horiz-adv-x="661" d="M61 1069q0 115 77 192.5t192 77.5q117 0 193.5 -77.5t76.5 -192.5t-77 -191.5t-193 -76.5q-115 0 -192 76.5t-77 191.5zM225 1069q0 -43 29 -72.5t76 -29.5t76.5 28.5t29.5 73.5t-29.5 76t-76.5 31t-76 -32t-29 -75z" />
<glyph unicode="&#xb1;" horiz-adv-x="925" d="M74 0v242h778v-242h-778zM74 489v242h268v156h244v-156h266v-242h-266v-157h-244v157h-268z" />
<glyph unicode="&#xb2;" horiz-adv-x="819" d="M72 1081q-4 98 41 173t125.5 115t183.5 40q145 0 236.5 -79t91.5 -208q0 -75 -21.5 -129.5t-75 -118t-174.5 -186.5h266v-217h-632v172l108 109q123 121 175.5 177t78 97t25.5 78q0 82 -90 82q-47 0 -73 -30t-22 -75h-243z" />
<glyph unicode="&#xb3;" horiz-adv-x="833" d="M61 780h242q0 -45 33 -73.5t82 -28.5q47 0 77.5 25.5t30.5 62.5q0 53 -46 85t-109 26h-43h-80v157l147 144h-286v211h610v-189l-166 -164q94 -22 157.5 -93t63.5 -177q0 -88 -46 -159.5t-129 -111.5t-185 -40q-156 0 -256.5 88t-96.5 237z" />
<glyph unicode="&#xb4;" horiz-adv-x="743" d="M268 1503l346 365l148 -152l-404 -309z" />
<glyph unicode="&#xb5;" horiz-adv-x="1361" d="M113 -444v1374h317v-484q0 -100 51 -150t133 -50q84 0 134.5 52t50.5 148v484h317v-584q0 -74 30 -104.5t85 -30.5q39 0 57 4v-215q-74 -23 -151 -23q-88 0 -156 34t-98 93q-33 -59 -101.5 -95t-144.5 -36t-131 29t-80 78v-524h-313z" />
<glyph unicode="&#xb6;" horiz-adv-x="1132" d="M33 971q0 147 86 244.5t233 97.5h813v-119h-143v-1491h-86v1491h-180v-1487h-264v920h-140q-147 0 -233 97t-86 247z" />
<glyph unicode="&#xb7;" horiz-adv-x="761" d="M147 557q0 94 70 164t166 70q59 0 113.5 -33t86 -87.5t31.5 -113.5t-31.5 -112.5t-85 -85t-114.5 -31.5t-115.5 31.5t-87.5 85t-33 112.5z" />
<glyph unicode="&#xb8;" horiz-adv-x="626" d="M84 -375q20 -25 56 -39t73 -14q51 0 86 24.5t35 71.5q0 51 -40 82t-85 25l-53 67l120 232h127v-76l-73 -127q43 2 92 -20.5t84 -71.5t35 -123q0 -109 -80 -169t-195 -60q-100 0 -182 45v153z" />
<glyph unicode="&#xb9;" horiz-adv-x="649" d="M61 1061v174q109 0 174.5 42t83.5 112h203v-918h-250v590h-211z" />
<glyph unicode="&#xbb;" horiz-adv-x="1224" d="M39 70l223 395l-223 393h350l223 -393l-223 -395h-350zM530 70l222 395l-222 393h351l221 -393l-221 -395h-351z" />
<glyph unicode="&#xbc;" horiz-adv-x="1626" d="M37 989v172q106 0 171 41t83 111h198v-854h-245v530h-207zM264 0l918 1405l133 -84l-918 -1403zM877 166v176l323 512h291v-492h113v-196h-113v-166h-238v166h-376zM1112 362h141v224z" />
<glyph unicode="&#xbd;" horiz-adv-x="1669" d="M37 989v172q106 0 171 41t83 111h198v-854h-245v530h-207zM264 0l918 1405l133 -84l-918 -1403zM987 565q-4 94 39 164t121 107t172 36q137 0 223 -74q86 -75 86 -194q0 -70 -19 -120t-67 -106q-47 -56 -153 -165h235v-213h-598v168q55 55 133 129q137 135 180 187 t43 100q0 66 -75 65q-43 0 -63 -23q-19 -24 -17 -61h-240z" />
<glyph unicode="&#xbe;" horiz-adv-x="1728" d="M33 750h239q0 -39 27 -64t70 -24q41 0 65 22q25 23 25 53q0 45 -44 72t-93 20q-2 0 -12 -2q-9 -2 -27 -2h-78v158l123 119h-250v211h573v-187l-147 -143q86 -22 143 -88t58 -162q0 -82 -45 -148q-44 -67 -121 -104q-78 -37 -174 -37q-152 0 -244 84t-88 222zM367 0 l917 1405l133 -84l-917 -1403zM979 166v176l324 512h290v-492h113v-196h-113v-166h-237v166h-377zM1214 362h142v224z" />
<glyph unicode="&#xbf;" horiz-adv-x="1038" d="M74 322q0 76 28.5 136t68.5 102t105 99q68 59 100 96.5t38 82.5v14h295v-14q0 -102 -50.5 -171t-144.5 -151q-63 -53 -95 -92t-32 -84q0 -43 37 -72.5t94 -29.5q72 0 113 42t37 103h297q4 -109 -49.5 -202t-158 -148.5t-247.5 -55.5q-125 0 -224.5 43t-155.5 121t-56 181 zM356 1151q0 88 56.5 138t144.5 50t145.5 -50t57.5 -138t-57.5 -139t-145.5 -51q-86 0 -143.5 51t-57.5 139z" />
<glyph unicode="&#xc0;" horiz-adv-x="1318" d="M14 0l490 1313h315l486 -1313h-353l-90 256h-409l-93 -256h-346zM260 1692l148 151l346 -364l-92 -97zM549 532h219l-33 93l-51 161l-22 70q-6 -27 -30 -95.5t-48 -135.5z" />
<glyph unicode="&#xc1;" horiz-adv-x="1318" d="M14 0l490 1313h315l486 -1313h-353l-90 256h-409l-93 -256h-346zM549 532h219l-33 93l-51 161l-22 70q-6 -27 -30 -95.5t-48 -135.5zM571 1481l347 364l147 -151l-403 -310z" />
<glyph unicode="&#xc2;" horiz-adv-x="1318" d="M14 0l490 1313h315l486 -1313h-353l-90 256h-409l-93 -256h-346zM297 1468l231 316h269l231 -316l-147 -100l-219 236l-220 -236zM549 532h219l-33 93l-51 161l-22 70q-6 -27 -30 -95.5t-48 -135.5z" />
<glyph unicode="&#xc3;" horiz-adv-x="1318" d="M14 0l490 1313h315l486 -1313h-353l-90 256h-409l-93 -256h-346zM322 1462q0 113 53 178.5t139 65.5q45 0 83 -16.5t89 -47.5q25 -14 49.5 -26t42.5 -12q37 0 51.5 23.5t12.5 72.5h151q8 -53 8 -76q0 -102 -53 -165.5t-139 -63.5q-45 0 -86 16t-92 47q-25 14 -48.5 25.5 t-39.5 11.5q-41 0 -54.5 -34t-9.5 -79h-151q-6 43 -6 80zM549 532h219l-33 93l-51 161l-22 70q-6 -27 -30 -95.5t-48 -135.5z" />
<glyph unicode="&#xc4;" horiz-adv-x="1318" d="M14 0l490 1313h315l486 -1313h-353l-90 256h-409l-93 -256h-346zM299 1530q0 66 43 106.5t107 40.5q63 0 105 -41t42 -106q0 -63 -42 -105.5t-105 -42.5q-64 0 -107 42t-43 106zM549 532h219l-33 93l-51 161l-22 70q-6 -27 -30 -95.5t-48 -135.5zM727 1530q0 66 43 106.5 t107 40.5q63 0 105 -41t42 -106q0 -63 -42 -105.5t-105 -42.5q-64 0 -107 42t-43 106z" />
<glyph unicode="&#xc5;" horiz-adv-x="1318" d="M14 0l490 1313h315l486 -1313h-353l-90 256h-409l-93 -256h-346zM365 1430q0 -70 34.5 -133.5t102 -102.5t160.5 -39q90 0 157.5 39t103 102.5t35.5 133.5t-35.5 133t-103 103t-157.5 40q-92 0 -160 -39t-102.5 -102.5t-34.5 -134.5zM549 532h219l-33 93l-51 161l-22 70 q-6 -27 -30 -95.5t-48 -135.5zM557 1434q0 43 29.5 73.5t75.5 30.5q43 0 73.5 -30.5t30.5 -73.5q0 -48 -29.5 -79.5t-74.5 -31.5t-75 31.5t-30 79.5z" />
<glyph unicode="&#xc6;" horiz-adv-x="1835" d="M16 0l549 1280v33h1168v-312h-576v-184l510 -2v-299l-510 2v-205l576 -2v-311l-576 2v-2h-313v266h-338l-107 -266h-383zM618 551h226v453h-45z" />
<glyph unicode="&#xc7;" horiz-adv-x="1490" d="M61 659q0 -207 89.5 -362.5t249 -239.5t362.5 -84q182 0 327.5 64.5t234.5 180.5t106 267h-369q-23 -92 -106 -148t-197 -56q-156 0 -251 99t-95 275q0 172 92 275.5t254 103.5q119 0 201.5 -56t101.5 -147h369q-18 156 -110.5 272t-237 177t-320.5 61q-207 0 -366.5 -85 t-247 -239.5t-87.5 -357.5zM498 -354q20 -25 56 -39.5t73 -14.5q51 0 86 25t35 72q0 51 -40 81.5t-85 24.5l-54 68l121 231h127v-76l-74 -127q43 3 92.5 -20t84 -72t34.5 -123q0 -109 -79.5 -169t-194.5 -60q-100 0 -182 45v154z" />
<glyph unicode="&#xc8;" horiz-adv-x="1122" d="M137 0v1313h883v-299h-551v-205h487v-289h-487v-221h551v-299h-883zM178 1692l148 151l346 -364l-92 -97z" />
<glyph unicode="&#xc9;" horiz-adv-x="1122" d="M137 0v1313h883v-299h-551v-205h487v-289h-487v-221h551v-299h-883zM489 1481l347 364l147 -151l-403 -310z" />
<glyph unicode="&#xca;" horiz-adv-x="1122" d="M137 0v1313h883v-299h-551v-205h487v-289h-487v-221h551v-299h-883zM215 1468l231 316h269l231 -316l-147 -100l-219 236l-220 -236z" />
<glyph unicode="&#xcb;" horiz-adv-x="1122" d="M137 0v1313h883v-299h-551v-205h487v-289h-487v-221h551v-299h-883zM217 1530q0 66 43 106.5t107 40.5q63 0 105 -41t42 -106q0 -63 -42 -105.5t-105 -42.5q-64 0 -107 42t-43 106zM645 1530q0 66 43 106.5t107 40.5q63 0 105 -41t42 -106q0 -63 -42 -105.5t-105 -42.5 q-64 0 -107 42t-43 106z" />
<glyph unicode="&#xcc;" horiz-adv-x="585" d="M-98 1692l147 151l346 -364l-92 -97zM137 0v1313h332v-1313h-332z" />
<glyph unicode="&#xcd;" horiz-adv-x="585" d="M137 0v1313h332v-1313h-332zM213 1481l346 364l148 -151l-404 -310z" />
<glyph unicode="&#xce;" horiz-adv-x="585" d="M-61 1468l231 316h268l232 -316l-148 -100l-219 236l-219 -236zM137 0v1313h332v-1313h-332z" />
<glyph unicode="&#xcf;" horiz-adv-x="585" d="M-59 1530q0 66 43 106.5t106 40.5t105.5 -41t42.5 -106q0 -63 -42 -105.5t-106 -42.5q-63 0 -106 42t-43 106zM137 0v1313h332v-1313h-332zM369 1530q0 66 43 106.5t106 40.5t105.5 -41t42.5 -106q0 -63 -42 -105.5t-106 -42.5q-63 0 -106 42t-43 106z" />
<glyph unicode="&#xd0;" horiz-adv-x="1486" d="M14 545v225h119v543h561q189 0 340.5 -85t236.5 -236.5t85 -340.5q0 -188 -84 -335.5t-234.5 -231.5t-343.5 -84h-561v545h-119zM465 299h197q159 0 251.5 97.5t92.5 254.5q0 164 -93.5 263.5t-250.5 99.5h-197v-244h172v-225h-172v-246z" />
<glyph unicode="&#xd1;" horiz-adv-x="1409" d="M137 0v1313h307l502 -742v742h328v-1313h-307l-502 737v-737h-328zM377 1505q0 113 53 178.5t139 65.5q45 0 83 -16.5t89 -46.5q25 -14 49.5 -26.5t43.5 -12.5q37 0 51 23.5t12 72.5h152q8 -53 8 -76q0 -102 -53.5 -165.5t-139.5 -63.5q-45 0 -86 16t-92 47 q-25 14 -48.5 25.5t-39.5 11.5q-41 0 -54.5 -34t-8.5 -79h-152q-6 43 -6 80z" />
<glyph unicode="&#xd2;" horiz-adv-x="1552" d="M61 655q0 201 90.5 357.5t253 242.5t371.5 86q207 0 370 -86t254 -240.5t91 -357.5q0 -202 -91 -357t-254 -241t-372 -86q-207 0 -368.5 85t-253 240t-91.5 357zM375 1720l147 152l346 -365l-92 -96zM412 655q0 -170 100 -272t264 -102q162 0 262.5 103t100.5 273 t-99.5 273.5t-261.5 103.5q-164 0 -265 -104.5t-101 -274.5z" />
<glyph unicode="&#xd3;" horiz-adv-x="1552" d="M61 655q0 201 90.5 357.5t253 242.5t371.5 86q207 0 370 -86t254 -240.5t91 -357.5q0 -202 -91 -357t-254 -241t-372 -86q-207 0 -368.5 85t-253 240t-91.5 357zM412 655q0 -170 100 -272t264 -102q162 0 262.5 103t100.5 273t-99.5 273.5t-261.5 103.5 q-164 0 -265 -104.5t-101 -274.5zM686 1509l346 365l148 -152l-404 -309z" />
<glyph unicode="&#xd4;" horiz-adv-x="1552" d="M61 655q0 201 90.5 357.5t253 242.5t371.5 86q207 0 370 -86t254 -240.5t91 -357.5q0 -202 -91 -357t-254 -241t-372 -86q-207 0 -368.5 85t-253 240t-91.5 357zM412 655q0 -170 100 -272t264 -102q162 0 262.5 103t100.5 273t-99.5 273.5t-261.5 103.5 q-164 0 -265 -104.5t-101 -274.5zM412 1497l231 315h268l232 -315l-148 -100l-219 235l-219 -235z" />
<glyph unicode="&#xd5;" horiz-adv-x="1552" d="M61 655q0 201 90.5 357.5t253 242.5t371.5 86q207 0 370 -86t254 -240.5t91 -357.5q0 -202 -91 -357t-254 -241t-372 -86q-207 0 -368.5 85t-253 240t-91.5 357zM412 655q0 -170 100 -272t264 -102q162 0 262.5 103t100.5 273t-99.5 273.5t-261.5 103.5 q-164 0 -265 -104.5t-101 -274.5zM436 1491q0 113 53.5 178.5t139.5 65.5q45 0 83 -16.5t89 -47.5q25 -14 49 -26.5t43 -12.5q37 0 51 23.5t12 73.5h152q8 -53 8 -76q0 -102 -53 -166t-139 -64q-45 0 -86 16.5t-93 47.5q-25 14 -48 25.5t-40 11.5q-41 0 -54 -34t-9 -79h-152 q-6 43 -6 80z" />
<glyph unicode="&#xd6;" horiz-adv-x="1552" d="M61 655q0 201 90.5 357.5t253 242.5t371.5 86q207 0 370 -86t254 -240.5t91 -357.5q0 -202 -91 -357t-254 -241t-372 -86q-207 0 -368.5 85t-253 240t-91.5 357zM412 655q0 -170 100 -272t264 -102q162 0 262.5 103t100.5 273t-99.5 273.5t-261.5 103.5 q-164 0 -265 -104.5t-101 -274.5zM414 1559q0 66 43 106.5t106 40.5t105.5 -41t42.5 -106q0 -63 -42 -105.5t-106 -42.5q-63 0 -106 42t-43 106zM842 1559q0 66 43 106.5t106 40.5t105.5 -41t42.5 -106q0 -63 -42 -105.5t-106 -42.5q-63 0 -106 42t-43 106z" />
<glyph unicode="&#xd7;" horiz-adv-x="1130" d="M166 393l229 230l-229 227l168 168l229 -227l228 227l167 -168l-227 -227l227 -230l-167 -168l-228 230l-229 -230z" />
<glyph unicode="&#xd8;" horiz-adv-x="1552" d="M61 657q0 201 90.5 357.5t253 242.5t371.5 86q207 0 370 -86t254 -240.5t91 -357.5t-91 -357.5t-254 -240.5t-372 -86q-207 0 -368.5 85t-253 240t-91.5 357zM412 657q0 -131 59 -221l371 596q-41 4 -64 4q-164 0 -265 -104.5t-101 -274.5zM698 289q37 -6 78 -6 q162 0 262.5 103t100.5 273q0 139 -70 238z" />
<glyph unicode="&#xd9;" horiz-adv-x="1433" d="M129 498v815h332v-801q0 -119 68.5 -180.5t185.5 -61.5q129 0 193.5 64.5t64.5 177.5v801h332v-815q0 -248 -160 -386.5t-430 -138.5q-184 0 -316.5 64.5t-201 183.5t-68.5 277zM315 1692l148 151l346 -364l-92 -97z" />
<glyph unicode="&#xda;" horiz-adv-x="1433" d="M129 498v815h332v-801q0 -119 68.5 -180.5t185.5 -61.5q129 0 193.5 64.5t64.5 177.5v801h332v-815q0 -248 -160 -386.5t-430 -138.5q-184 0 -316.5 64.5t-201 183.5t-68.5 277zM627 1481l346 364l147 -151l-403 -310z" />
<glyph unicode="&#xdb;" horiz-adv-x="1433" d="M129 498v815h332v-801q0 -119 68.5 -180.5t185.5 -61.5q129 0 193.5 64.5t64.5 177.5v801h332v-815q0 -248 -160 -386.5t-430 -138.5q-184 0 -316.5 64.5t-201 183.5t-68.5 277zM352 1468l232 316h268l231 -316l-147 -100l-219 236l-219 -236z" />
<glyph unicode="&#xdc;" horiz-adv-x="1433" d="M129 498v815h332v-801q0 -119 68.5 -180.5t185.5 -61.5q129 0 193.5 64.5t64.5 177.5v801h332v-815q0 -248 -160 -386.5t-430 -138.5q-184 0 -316.5 64.5t-201 183.5t-68.5 277zM354 1530q0 66 43 106.5t107 40.5q63 0 105 -41t42 -106q0 -63 -42 -105.5t-105 -42.5 q-64 0 -107 42t-43 106zM782 1530q0 66 43 106.5t107 40.5q63 0 105 -41t42 -106q0 -63 -42 -105.5t-105 -42.5q-64 0 -107 42t-43 106z" />
<glyph unicode="&#xdd;" horiz-adv-x="1325" d="M16 1313h385l119 -207q57 -100 97 -178t51 -99q10 20 50 99.5t97 177.5l121 207h373l-480 -809v-504h-333v504zM580 1481l346 364l147 -151l-403 -310z" />
<glyph unicode="&#xde;" horiz-adv-x="1218" d="M137 0v1313h332v-201h236q221 0 346 -125t125 -340q0 -211 -127 -338t-351 -127h-229v-182h-332zM469 467h168q100 0 144 54t44 132q0 61 -45 113.5t-143 52.5h-168v-352z" />
<glyph unicode="&#xdf;" horiz-adv-x="1155" d="M102 -2v993q0 207 126 327t337 120q197 0 316.5 -99.5t119.5 -263.5q0 -104 -51 -181t-139 -99q135 -29 209 -135.5t74 -251.5q0 -125 -55.5 -221.5t-157 -149.5t-234.5 -53q-100 0 -160 18v272q37 -12 84 -12q94 0 146.5 50t52.5 139q0 94 -60.5 148t-166.5 54h-25v265 h25q61 0 98 34.5t37 94.5q0 53 -35 86.5t-92 33.5q-59 0 -95 -40t-36 -103v-1026h-318z" />
<glyph unicode="&#xe0;" d="M61 457q0 150 58.5 264.5t165 178t245.5 63.5q193 0 293 -113l21 80h264v-930h-305v92q-47 -55 -128 -87t-175 -32q-129 0 -228.5 60.5t-155 170t-55.5 253.5zM123 1341l147 152l346 -365l-92 -96zM385 469q0 -92 55.5 -150.5t145.5 -58.5t147.5 57.5t57.5 151.5 t-57.5 151.5t-147.5 57.5t-145.5 -58.5t-55.5 -150.5z" />
<glyph unicode="&#xe1;" d="M61 457q0 150 58.5 264.5t165 178t245.5 63.5q193 0 293 -113l21 80h264v-930h-305v92q-47 -55 -128 -87t-175 -32q-129 0 -228.5 60.5t-155 170t-55.5 253.5zM385 469q0 -92 55.5 -150.5t145.5 -58.5t147.5 57.5t57.5 151.5t-57.5 151.5t-147.5 57.5t-145.5 -58.5 t-55.5 -150.5zM434 1128l346 365l148 -152l-404 -309z" />
<glyph unicode="&#xe2;" d="M61 457q0 150 58.5 264.5t165 178t245.5 63.5q193 0 293 -113l21 80h264v-930h-305v92q-47 -55 -128 -87t-175 -32q-129 0 -228.5 60.5t-155 170t-55.5 253.5zM160 1118l231 316h266l232 -316l-146 -100l-219 235l-219 -235zM385 469q0 -92 55.5 -150.5t145.5 -58.5 t147.5 57.5t57.5 151.5t-57.5 151.5t-147.5 57.5t-145.5 -58.5t-55.5 -150.5z" />
<glyph unicode="&#xe3;" d="M61 457q0 150 58.5 264.5t165 178t245.5 63.5q193 0 293 -113l21 80h264v-930h-305v92q-47 -55 -128 -87t-175 -32q-129 0 -228.5 60.5t-155 170t-55.5 253.5zM184 1112q0 113 53.5 178.5t139.5 65.5q45 0 83 -16.5t89 -47.5q25 -14 49.5 -26.5t42.5 -12.5 q37 0 51.5 23.5t12.5 73.5h151q8 -53 8 -76q0 -102 -53 -166t-139 -64q-45 0 -86 16.5t-92 47.5q-25 14 -48.5 25.5t-39.5 11.5q-41 0 -54.5 -34t-9.5 -79h-152q-6 43 -6 80zM385 469q0 -92 55.5 -150.5t145.5 -58.5t147.5 57.5t57.5 151.5t-57.5 151.5t-147.5 57.5 t-145.5 -58.5t-55.5 -150.5z" />
<glyph unicode="&#xe4;" d="M61 457q0 150 58.5 264.5t165 178t245.5 63.5q193 0 293 -113l21 80h264v-930h-305v92q-47 -55 -128 -87t-175 -32q-129 0 -228.5 60.5t-155 170t-55.5 253.5zM162 1180q0 66 43 106.5t106 40.5t105.5 -41t42.5 -106q0 -63 -42 -105.5t-106 -42.5q-63 0 -106 42t-43 106z M385 469q0 -92 55.5 -150.5t145.5 -58.5t147.5 57.5t57.5 151.5t-57.5 151.5t-147.5 57.5t-145.5 -58.5t-55.5 -150.5zM590 1180q0 66 43 106.5t106 40.5t105.5 -41t42.5 -106q0 -63 -42 -105.5t-106 -42.5q-63 0 -106 42t-43 106z" />
<glyph unicode="&#xe5;" d="M61 457q0 150 58.5 264.5t165 178t245.5 63.5q193 0 293 -113l21 80h264v-930h-305v92q-47 -55 -128 -87t-175 -32q-129 0 -228.5 60.5t-155 170t-55.5 253.5zM227 1284q0 72 35 135.5t102.5 102.5t159.5 39q90 0 158 -40t103.5 -103.5t35.5 -133.5t-35.5 -133.5 t-103.5 -102t-158 -38.5q-92 0 -159.5 38.5t-102.5 102t-35 133.5zM385 469q0 -92 55.5 -150.5t145.5 -58.5t147.5 57.5t57.5 151.5t-57.5 151.5t-147.5 57.5t-145.5 -58.5t-55.5 -150.5zM420 1288q0 -47 29.5 -78.5t74.5 -31.5t75 31.5t30 78.5q0 43 -31 74t-74 31 q-45 0 -74.5 -31t-29.5 -74z" />
<glyph unicode="&#xe6;" horiz-adv-x="1681" d="M63 279q0 139 101.5 222t286.5 83h186v18q0 59 -37 91t-104 32q-66 0 -106 -27.5t-44 -74.5h-262q4 154 124 247t308 93q197 0 307 -107q129 104 320 105q139 0 247.5 -57.5t168 -159t59.5 -230.5q0 -43 -6 -83t-8 -50h-637q2 -61 53 -104.5t135 -43.5q59 0 103.5 17.5 t60.5 50.5h305q-35 -150 -164 -239t-309 -89q-123 0 -219 39t-150 109q-51 -70 -139 -109t-205 -39q-170 0 -272.5 83t-102.5 223zM387 287q0 -41 28.5 -62.5t80.5 -21.5q68 0 105.5 35.5t37.5 95.5v51h-109q-82 0 -112.5 -29.5t-30.5 -68.5zM971 584h323q-2 55 -48 86.5 t-116 31.5q-71 0 -113 -32.5t-46 -85.5z" />
<glyph unicode="&#xe7;" horiz-adv-x="1118" d="M61 467q0 -147 63.5 -259t179.5 -173.5t265 -61.5q135 0 243 51.5t172.5 143.5t72.5 213h-324q-10 -57 -56 -93t-112 -36q-82 0 -131 58.5t-49 154.5q0 98 49 157.5t131 59.5q61 0 107.5 -33t60.5 -98h324q-6 121 -69.5 215t-172 145.5t-246.5 51.5q-150 0 -265.5 -61.5 t-179 -174.5t-63.5 -260zM340 -350q20 -25 56 -39t73 -14q51 0 86 24.5t35 71.5q0 51 -40 81.5t-85 24.5l-53 68l120 231h127v-75l-73 -127q43 2 92 -20.5t84 -72t35 -122.5q0 -109 -80 -169.5t-195 -60.5q-100 0 -182 45v154z" />
<glyph unicode="&#xe8;" horiz-adv-x="1077" d="M61 469q0 150 62.5 261.5t174.5 172t255 60.5q141 0 248.5 -57.5t167 -160t59.5 -233.5q0 -78 -12 -131h-641q4 -68 54 -110t130 -42q59 0 102.5 20.5t61.5 55.5h307q-29 -149 -159 -240.5t-312 -91.5q-147 0 -260 62.5t-175.5 175.5t-62.5 258zM152 1341l147 152 l346 -365l-92 -96zM379 586h323q-2 55 -47 87t-114 32q-68 0 -113 -32t-49 -87z" />
<glyph unicode="&#xe9;" horiz-adv-x="1077" d="M61 469q0 150 62.5 261.5t174.5 172t255 60.5q141 0 248.5 -57.5t167 -160t59.5 -233.5q0 -78 -12 -131h-641q4 -68 54 -110t130 -42q59 0 102.5 20.5t61.5 55.5h307q-29 -149 -159 -240.5t-312 -91.5q-147 0 -260 62.5t-175.5 175.5t-62.5 258zM379 586h323 q-2 55 -47 87t-114 32q-68 0 -113 -32t-49 -87zM463 1130l346 365l147 -152l-403 -309z" />
<glyph unicode="&#xea;" horiz-adv-x="1077" d="M61 469q0 150 62.5 261.5t174.5 172t255 60.5q141 0 248.5 -57.5t167 -160t59.5 -233.5q0 -78 -12 -131h-641q4 -68 54 -110t130 -42q59 0 102.5 20.5t61.5 55.5h307q-29 -149 -159 -240.5t-312 -91.5q-147 0 -260 62.5t-175.5 175.5t-62.5 258zM188 1118l232 316h268 l232 -316l-148 -100l-219 235l-219 -235zM379 586h323q-2 55 -47 87t-114 32q-68 0 -113 -32t-49 -87z" />
<glyph unicode="&#xeb;" horiz-adv-x="1077" d="M61 469q0 150 62.5 261.5t174.5 172t255 60.5q141 0 248.5 -57.5t167 -160t59.5 -233.5q0 -78 -12 -131h-641q4 -68 54 -110t130 -42q59 0 102.5 20.5t61.5 55.5h307q-29 -149 -159 -240.5t-312 -91.5q-147 0 -260 62.5t-175.5 175.5t-62.5 258zM190 1180q0 66 43 106.5 t107 40.5q63 0 105 -41t42 -106q0 -63 -42 -105.5t-105 -42.5q-64 0 -107 42t-43 106zM379 586h323q-2 55 -47 87t-114 32q-68 0 -113 -32t-49 -87zM618 1180q0 66 43.5 106.5t106.5 40.5t105 -41t42 -106q0 -63 -42 -105.5t-105 -42.5t-106.5 42t-43.5 106z" />
<glyph unicode="&#xec;" horiz-adv-x="522" d="M-139 1372l147 152l346 -365l-92 -96zM102 0v930h318v-930h-318z" />
<glyph unicode="&#xed;" horiz-adv-x="522" d="M102 0v930h318v-930h-318zM172 1161l346 365l148 -152l-404 -309z" />
<glyph unicode="&#xee;" horiz-adv-x="522" d="M-102 1149l231 315h268l232 -315l-148 -100l-219 235l-219 -235zM102 0v930h318v-930h-318z" />
<glyph unicode="&#xef;" horiz-adv-x="522" d="M-100 1210q0 66 43 107t106 41t105.5 -41t42.5 -107q0 -63 -42 -105t-106 -42q-63 0 -106 42t-43 105zM102 0v930h318v-930h-318zM328 1210q0 66 43 107t106 41t105.5 -41t42.5 -107q0 -63 -42 -105t-106 -42q-63 0 -106 42t-43 105z" />
<glyph unicode="&#xf0;" horiz-adv-x="1120" d="M61 422q0 137 60.5 238.5t165 152.5t229.5 47l-96 113l-201 -92l-86 184l150 70l-154 178h399l41 -47l170 80l82 -185l-114 -53l147 -172q57 -68 98 -126t74 -147.5t33 -197.5q0 -150 -63.5 -261.5t-179.5 -171t-267 -59.5q-150 0 -260.5 57.5t-169 160t-58.5 231.5z M379 463q0 -94 50 -152.5t132 -58.5q80 0 130 58.5t50 152.5q0 92 -49 149.5t-131 57.5t-132 -56.5t-50 -150.5z" />
<glyph unicode="&#xf1;" horiz-adv-x="1114" d="M102 0v930h265l16 -94q43 59 120 93t167 34q166 0 259 -105.5t93 -279.5v-578h-317v502q0 174 -142 174q-145 0 -145 -168v-508h-316zM217 1112q0 113 53.5 178.5t139.5 65.5q45 0 82.5 -16.5t89.5 -47.5q25 -14 49 -26.5t43 -12.5q37 0 51 23.5t12 73.5h152q8 -53 8 -76 q0 -102 -53 -166t-139 -64q-45 0 -86 16.5t-93 47.5q-25 14 -48 25.5t-40 11.5q-41 0 -54 -34t-9 -79h-152q-6 43 -6 80z" />
<glyph unicode="&#xf2;" horiz-adv-x="1163" d="M61 467q0 145 66 258t183.5 175.5t271.5 62.5t271.5 -62.5t183 -175.5t65.5 -258t-65.5 -257t-183.5 -174.5t-271 -62.5q-154 0 -271.5 62.5t-183.5 174.5t-66 257zM180 1341l148 152l346 -365l-92 -96zM385 469q0 -94 54.5 -154.5t142.5 -60.5t142 60.5t54 154.5 t-54 152.5t-142 58.5t-142.5 -58.5t-54.5 -152.5z" />
<glyph unicode="&#xf3;" horiz-adv-x="1163" d="M61 467q0 145 66 258t183.5 175.5t271.5 62.5t271.5 -62.5t183 -175.5t65.5 -258t-65.5 -257t-183.5 -174.5t-271 -62.5q-154 0 -271.5 62.5t-183.5 174.5t-66 257zM385 469q0 -94 54.5 -154.5t142.5 -60.5t142 60.5t54 154.5t-54 152.5t-142 58.5t-142.5 -58.5 t-54.5 -152.5zM492 1130l346 365l147 -152l-403 -309z" />
<glyph unicode="&#xf4;" horiz-adv-x="1163" d="M61 467q0 145 66 258t183.5 175.5t271.5 62.5t271.5 -62.5t183 -175.5t65.5 -258t-65.5 -257t-183.5 -174.5t-271 -62.5q-154 0 -271.5 62.5t-183.5 174.5t-66 257zM217 1118l232 316h268l231 -316l-147 -100l-219 235l-220 -235zM385 469q0 -94 54.5 -154.5t142.5 -60.5 t142 60.5t54 154.5t-54 152.5t-142 58.5t-142.5 -58.5t-54.5 -152.5z" />
<glyph unicode="&#xf5;" horiz-adv-x="1163" d="M61 467q0 145 66 258t183.5 175.5t271.5 62.5t271.5 -62.5t183 -175.5t65.5 -258t-65.5 -257t-183.5 -174.5t-271 -62.5q-154 0 -271.5 62.5t-183.5 174.5t-66 257zM242 1112q0 113 53 178.5t139 65.5q45 0 83 -16.5t89 -47.5q25 -14 49.5 -26.5t42.5 -12.5 q37 0 51.5 23.5t12.5 73.5h151q8 -53 9 -76q0 -102 -53.5 -166t-139.5 -64q-45 0 -86 16.5t-92 47.5q-25 14 -48.5 25.5t-39.5 11.5q-41 0 -54.5 -34t-9.5 -79h-151q-6 43 -6 80zM385 469q0 -94 54.5 -154.5t142.5 -60.5t142 60.5t54 154.5t-54 152.5t-142 58.5 t-142.5 -58.5t-54.5 -152.5z" />
<glyph unicode="&#xf6;" horiz-adv-x="1163" d="M61 467q0 145 66 258t183.5 175.5t271.5 62.5t271.5 -62.5t183 -175.5t65.5 -258t-65.5 -257t-183.5 -174.5t-271 -62.5q-154 0 -271.5 62.5t-183.5 174.5t-66 257zM219 1180q0 66 43 106.5t107 40.5q63 0 105 -41t42 -106q0 -63 -42 -105.5t-105 -42.5q-64 0 -107 42 t-43 106zM385 469q0 -94 54.5 -154.5t142.5 -60.5t142 60.5t54 154.5t-54 152.5t-142 58.5t-142.5 -58.5t-54.5 -152.5zM647 1180q0 66 43 106.5t107 40.5q63 0 105 -41t42 -106q0 -63 -42 -105.5t-105 -42.5q-64 0 -107 42t-43 106z" />
<glyph unicode="&#xf7;" horiz-adv-x="1024" d="M147 485v240h730v-240h-730zM350 233q0 66 49.5 113t114.5 47q61 0 110.5 -48t49.5 -112q0 -63 -48 -110t-112 -47q-65 0 -114.5 47t-49.5 110zM350 975q0 63 49.5 111.5t114.5 48.5q63 0 111.5 -48.5t48.5 -111.5t-49.5 -110.5t-110.5 -47.5q-65 0 -114.5 47t-49.5 111z " />
<glyph unicode="&#xf8;" horiz-adv-x="1163" d="M61 467q0 145 66 258t183.5 175.5t271.5 62.5t271.5 -62.5t183 -175.5t65.5 -258t-65.5 -257t-183.5 -174.5t-271 -62.5q-154 0 -271.5 62.5t-183.5 174.5t-66 257zM173 -3l655 1040l163 -99l-655 -1040zM385 469q0 -94 54.5 -154.5t142.5 -60.5t142 60.5t54 154.5 t-54 152.5t-142 58.5t-142.5 -58.5t-54.5 -152.5z" />
<glyph unicode="&#xf9;" horiz-adv-x="1095" d="M92 344v586h318v-539q0 -143 139 -143q66 0 101.5 39t35.5 106v537h318v-930h-265l-16 98q-100 -125 -283 -125q-168 0 -258 100.5t-90 270.5zM147 1309l148 151l346 -364l-92 -97z" />
<glyph unicode="&#xfa;" horiz-adv-x="1095" d="M92 344v586h318v-539q0 -143 139 -143q66 0 101.5 39t35.5 106v537h318v-930h-265l-16 98q-100 -125 -283 -125q-168 0 -258 100.5t-90 270.5zM459 1098l346 364l147 -151l-403 -310z" />
<glyph unicode="&#xfb;" horiz-adv-x="1095" d="M92 344v586h318v-539q0 -143 139 -143q66 0 101.5 39t35.5 106v537h318v-930h-265l-16 98q-100 -125 -283 -125q-168 0 -258 100.5t-90 270.5zM184 1085l232 316h268l231 -316l-147 -100l-219 236l-219 -236z" />
<glyph unicode="&#xfc;" horiz-adv-x="1095" d="M92 344v586h318v-539q0 -143 139 -143q66 0 101.5 39t35.5 106v537h318v-930h-265l-16 98q-100 -125 -283 -125q-168 0 -258 100.5t-90 270.5zM186 1147q0 66 43 106.5t107 40.5q63 0 105 -41t42 -106q0 -63 -42 -105.5t-105 -42.5q-64 0 -107 42t-43 106zM614 1147 q0 66 43 106.5t107 40.5q63 0 105 -41t42 -106q0 -63 -42 -105.5t-105 -42.5q-64 0 -107 42t-43 106z" />
<glyph unicode="&#xfd;" horiz-adv-x="1136" d="M20 930h345l200 -568l215 568h336l-432 -1071q-35 -86 -78 -151.5t-130 -118t-222 -52.5q-80 0 -199 25l4 258q82 -14 140 -15q72 0 112.5 19.5t59 48.5t37.5 76l10 26zM483 1098l346 364l148 -151l-404 -310z" />
<glyph unicode="&#xfe;" horiz-adv-x="1236" d="M119 -455v1874h305v-530q113 72 270 72q146 0 257.5 -60.5t173 -172.5t61.5 -257q0 -147 -61.5 -259t-174 -173.5t-264.5 -61.5q-156 0 -256 64v-496h-311zM434 465q0 -92 60.5 -150.5t154.5 -58.5q99 0 159 58.5t60 150.5t-60 149.5t-159 57.5q-96 0 -155.5 -57.5 t-59.5 -149.5z" />
<glyph unicode="&#xff;" horiz-adv-x="1136" d="M20 930h345l200 -568l215 568h336l-432 -1071q-35 -86 -78 -151.5t-130 -118t-222 -52.5q-80 0 -199 25l4 258q82 -14 140 -15q72 0 112.5 19.5t59 48.5t37.5 76l10 26zM211 1147q0 66 43 106.5t106 40.5t105.5 -41t42.5 -106q0 -63 -42 -105.5t-106 -42.5q-63 0 -106 42 t-43 106zM639 1147q0 66 43 106.5t106 40.5t105.5 -41t42.5 -106q0 -63 -42 -105.5t-106 -42.5q-63 0 -106 42t-43 106z" />
<glyph unicode="&#x152;" horiz-adv-x="2258" d="M61 684q0 209 92.5 374t260.5 258t389 93q135 0 248.5 -35t183.5 -94v104h922v-311h-590v-225h522v-295h-522v-242h590v-311h-922v113q-78 -63 -191.5 -100.5t-238.5 -37.5q-229 0 -397 91.5t-257.5 252t-89.5 365.5zM412 692q0 -117 52 -206t145 -138t212 -49t211 49 t144.5 138t52.5 206t-52.5 207t-144.5 139t-211 49t-212 -49t-145 -139t-52 -207z" />
<glyph unicode="&#x153;" horiz-adv-x="1923" d="M61 467q0 145 66 258t183.5 175.5t271.5 62.5t271.5 -62.5t183 -175.5t65.5 -258t-65.5 -257t-183.5 -174.5t-271 -62.5q-154 0 -271.5 62.5t-183.5 174.5t-66 257zM385 469q0 -94 54.5 -154.5t142.5 -60.5t142 60.5t54 154.5t-54 152.5t-142 58.5t-142.5 -58.5 t-54.5 -152.5zM895 469q0 150 62.5 261.5t174 172t254.5 60.5q141 0 249 -57.5t167.5 -160t59.5 -233.5q0 -78 -13 -131h-641q4 -68 54.5 -110t130.5 -42q59 0 102 20.5t61 55.5h308q-29 -149 -159 -240.5t-312 -91.5q-147 0 -260 62.5t-175.5 175.5t-62.5 258zM1212 586 h324q-2 55 -47 87t-115 32q-68 0 -112.5 -32t-49.5 -87z" />
<glyph unicode="&#x178;" horiz-adv-x="1325" d="M16 1313h385l119 -207q57 -100 97 -178t51 -99q10 20 50 99.5t97 177.5l121 207h373l-480 -809v-504h-333v504zM307 1530q0 66 43 106.5t107 40.5q63 0 105 -41t42 -106q0 -63 -42 -105.5t-105 -42.5q-64 0 -107 42t-43 106zM735 1530q0 66 43 106.5t107 40.5 q63 0 105 -41t42 -106q0 -63 -42 -105.5t-105 -42.5q-64 0 -107 42t-43 106z" />
<glyph unicode="&#x2c6;" horiz-adv-x="991" d="M129 1491l231 315h269l231 -315l-147 -100l-219 235l-220 -235z" />
<glyph unicode="&#x2dc;" horiz-adv-x="1060" d="M193 1485q0 113 53 178.5t139 65.5q45 0 83 -16.5t89 -47.5q25 -14 49.5 -26.5t42.5 -12.5q37 0 51.5 23.5t12.5 72.5h151q8 -53 8 -75q0 -102 -53 -166t-139 -64q-45 0 -86 16.5t-92 47.5q-25 14 -48.5 25.5t-39.5 11.5q-41 0 -54.5 -34t-9.5 -79h-151q-6 43 -6 80z" />
<glyph unicode="&#x2000;" horiz-adv-x="937" />
<glyph unicode="&#x2001;" horiz-adv-x="1874" />
<glyph unicode="&#x2002;" horiz-adv-x="937" />
<glyph unicode="&#x2003;" horiz-adv-x="1874" />
<glyph unicode="&#x2004;" horiz-adv-x="624" />
<glyph unicode="&#x2005;" horiz-adv-x="468" />
<glyph unicode="&#x2006;" horiz-adv-x="312" />
<glyph unicode="&#x2007;" horiz-adv-x="312" />
<glyph unicode="&#x2008;" horiz-adv-x="234" />
<glyph unicode="&#x2009;" horiz-adv-x="374" />
<glyph unicode="&#x200a;" horiz-adv-x="104" />
<glyph unicode="&#x2010;" horiz-adv-x="1243" d="M147 358v279h949v-279h-949z" />
<glyph unicode="&#x2011;" horiz-adv-x="1243" d="M147 358v279h949v-279h-949z" />
<glyph unicode="&#x2012;" horiz-adv-x="1243" d="M147 358v279h949v-279h-949z" />
<glyph unicode="&#x2013;" horiz-adv-x="1925" d="M147 358v279h1631v-279h-1631z" />
<glyph unicode="&#x2014;" horiz-adv-x="2396" d="M147 358v279h2102v-279h-2102z" />
<glyph unicode="&#x2018;" horiz-adv-x="542" d="M92 977q0 137 94.5 229t251.5 107v-80q-94 -10 -144 -58.5t-52 -111.5q25 12 59 12q64 0 107 -42t43 -109q0 -72 -48.5 -119t-123.5 -47q-84 0 -135.5 60.5t-51.5 158.5z" />
<glyph unicode="&#x2019;" horiz-adv-x="542" d="M92 1176q0 72 48 118.5t124 46.5q84 0 135.5 -60t51.5 -159q0 -137 -94.5 -229t-252.5 -107v80q94 10 144.5 58.5t52.5 111.5q-25 -12 -59 -12q-63 0 -106.5 42t-43.5 110z" />
<glyph unicode="&#x201a;" horiz-adv-x="581" d="M12 -291l94 565h316l-252 -565h-158z" />
<glyph unicode="&#x201c;" horiz-adv-x="985" d="M92 977q0 133 91 227t251 109v-80q-88 -10 -139 -55t-53 -113q25 12 59 12q64 0 107 -43t43 -110q0 -72 -48.5 -119t-126.5 -47q-84 0 -134 59.5t-50 159.5zM535 977q0 137 95 230t249 106v-80q-88 -10 -140.5 -54t-54.5 -114q29 12 59 12q64 0 107 -43t43 -110 q0 -72 -48 -119t-124 -47q-86 0 -136 60.5t-50 158.5z" />
<glyph unicode="&#x201d;" horiz-adv-x="985" d="M92 1176q0 72 48 118.5t124 46.5q84 0 135.5 -60t51.5 -159q0 -137 -94.5 -229t-252.5 -107v80q94 10 144.5 58.5t52.5 111.5q-25 -12 -59 -12q-63 0 -106.5 42t-43.5 110zM535 1176q0 72 48 118.5t124 46.5q84 0 135 -60t51 -159q0 -137 -95.5 -230t-248.5 -106v80 q94 10 143 58.5t51 111.5q-27 -12 -59 -12q-61 0 -105 42t-44 110z" />
<glyph unicode="&#x201e;" horiz-adv-x="1071" d="M33 -291l196 565h295l-231 -565h-260zM436 -291l238 565h295l-273 -565h-260z" />
<glyph unicode="&#x2022;" horiz-adv-x="1095" d="M143 557q0 113 54.5 205t147.5 146.5t206 54.5q115 0 206 -54.5t143 -146.5t52 -205q0 -111 -52 -202t-143 -143t-206 -52q-113 0 -206 52t-147.5 143t-54.5 202z" />
<glyph unicode="&#x2026;" horiz-adv-x="1654" d="M104 141q0 74 53.5 127.5t127.5 53.5q72 0 126 -54.5t54 -126.5t-54.5 -125t-125.5 -53q-74 0 -127.5 53.5t-53.5 124.5zM647 141q0 74 53.5 127.5t126.5 53.5q72 0 126.5 -54.5t54.5 -126.5q0 -70 -54.5 -124t-126.5 -54q-73 0 -126.5 53.5t-53.5 124.5zM1186 141 q0 72 53 126.5t127 54.5q72 0 128 -54.5t56 -126.5q0 -70 -56 -124t-128 -54q-74 0 -127 53.5t-53 124.5z" />
<glyph unicode="&#x202f;" horiz-adv-x="374" />
<glyph unicode="&#x2039;" horiz-adv-x="739" d="M123 465l223 393h350l-223 -393l223 -395h-350z" />
<glyph unicode="&#x203a;" horiz-adv-x="739" d="M43 70l223 395l-223 393h350l223 -393l-223 -395h-350z" />
<glyph unicode="&#x205f;" horiz-adv-x="468" />
<glyph unicode="&#x20ac;" horiz-adv-x="1241" d="M90 397v215h113v41q0 35 2 52h-115v215h156q70 199 239.5 311t407.5 112q78 0 149.5 -10t87.5 -18v-279q-74 25 -184 25q-258 0 -371 -141h396l-37 -215h-434q-2 -14 -2 -46q0 -33 2 -47h415l-36 -215h-304q109 -143 365 -143q109 0 190 25v-279q-98 -27 -217 -27 q-252 0 -427 112t-242 312h-154z" />
<glyph unicode="&#x2122;" horiz-adv-x="1718" d="M51 1239v166h627v-166h-205v-633h-205v633h-217zM762 606v799h237l183 -559l182 559h238v-799h-205v109q0 61 14 258l4 51l-141 -395h-184l-142 395l4 -51q14 -197 15 -258v-109h-205z" />
<glyph unicode="&#x25fc;" horiz-adv-x="930" d="M0 0v930h930v-930h-930z" />
</font>
</defs>
</svg>
