<svg width="65" height="65" viewBox="0 0 65 65" fill="none" xmlns="http://www.w3.org/2000/svg">
<rect width="65" height="65" rx="12" fill="#00A3FF"/>
<path d="M17.0238 31.2805L20.1964 31.4347C20.3839 29.7471 20.9209 28.1165 21.7733 26.6462C22.6258 25.1758 23.7752 23.8977 25.1488 22.8927L23.4155 20.2406C22.9976 19.5005 23.2143 18.56 23.9881 18.1282C24.7619 17.7119 25.675 17.9586 26.1083 18.6987L27.5476 21.505C29.1121 20.8349 30.7971 20.4893 32.5 20.4893C34.2029 20.4893 35.8879 20.8349 37.4524 21.505L38.8917 18.6987C39.325 17.9586 40.2381 17.7119 41.0119 18.1282C41.7857 18.56 42.0024 19.5005 41.5845 20.2406L39.8512 22.8927C41.2249 23.8977 42.3742 25.1758 43.2267 26.6462C44.0791 28.1165 44.6161 29.7471 44.8036 31.4347L47.9762 31.2805C48.3867 31.2805 48.7803 31.443 49.0705 31.7321C49.3608 32.0213 49.5238 32.4135 49.5238 32.8224C49.5238 33.2314 49.3608 33.6235 49.0705 33.9127C48.7803 34.2019 48.3867 34.3643 47.9762 34.3643L44.8036 34.2101C44.6161 35.8978 44.0791 37.5283 43.2267 38.9987C42.3742 40.469 41.2249 41.7471 39.8512 42.7522L41.5845 45.4042C42.0024 46.1443 41.7857 47.0849 41.0119 47.5166C40.2381 47.9329 39.325 47.6862 38.8917 46.9461L37.4524 44.1399C35.8879 44.81 34.2029 45.1555 32.5 45.1555C30.7971 45.1555 29.1121 44.81 27.5476 44.1399L26.1083 46.9461C25.675 47.6862 24.7619 47.9329 23.9881 47.5166C23.2143 47.0849 22.9976 46.1443 23.4155 45.4042L25.1488 42.7522C23.7752 41.7471 22.6258 40.469 21.7733 38.9987C20.9209 37.5283 20.3839 35.8978 20.1964 34.2101L17.0238 34.3643C16.6134 34.3643 16.2197 34.2019 15.9295 33.9127C15.6392 33.6235 15.4762 33.2314 15.4762 32.8224C15.4762 32.4135 15.6392 32.0213 15.9295 31.7321C16.2197 31.443 16.6134 31.2805 17.0238 31.2805V31.2805ZM27.9655 31.8202C28.1667 30.8796 28.6774 30.047 29.4048 29.4149L26.8357 25.4985C24.894 26.9832 23.6201 29.1724 23.2917 31.5889L27.9655 31.8202ZM32.5 28.1968C32.9952 28.1968 33.4595 28.2739 33.8929 28.4126L36.0286 24.2649C34.9452 23.8178 33.7536 23.5711 32.5 23.5711C31.2464 23.5711 30.0548 23.8178 28.9714 24.2649L31.1072 28.4126C31.5405 28.2739 32.0048 28.1968 32.5 28.1968V28.1968ZM37.0345 31.8202L41.7083 31.5889C41.3799 29.1724 40.106 26.9832 38.1643 25.4985L35.5952 29.4149C36.3226 30.047 36.8333 30.8796 37.0345 31.8202V31.8202ZM37.0345 33.8246C36.8333 34.7652 36.3226 35.5978 35.5952 36.23L38.1643 40.1464C40.106 38.6617 41.3799 36.4725 41.7083 34.0559L37.0345 33.8246ZM32.5 37.4481C32.0048 37.4481 31.5405 37.371 31.0917 37.2322L28.9714 41.3799C30.0548 41.827 31.2464 42.0737 32.5 42.0737C33.7536 42.0737 34.9452 41.827 36.0286 41.3799L33.9083 37.2322C33.4595 37.371 32.9952 37.4481 32.5 37.4481V37.4481ZM27.9655 33.8246L23.2917 34.0559C23.6321 36.523 24.9321 38.697 26.8357 40.1464L29.4048 36.23C28.6774 35.5978 28.1667 34.7652 27.9655 33.8246V33.8246Z" fill="white"/>
</svg>
