<svg width="24" height="24" viewBox="0 0 24 24" fill="none" xmlns="http://www.w3.org/2000/svg">
<path fill-rule="evenodd" clip-rule="evenodd" d="M6.58341 2.1665C4.14416 2.1665 2.16675 4.14391 2.16675 6.58317V17.4165C2.16675 19.8558 4.14416 21.8332 6.58341 21.8332H17.4167C19.856 21.8332 21.8334 19.8558 21.8334 17.4165V6.58317C21.8334 4.14391 19.856 2.1665 17.4167 2.1665H6.58341ZM0.166748 6.58317C0.166748 3.03934 3.03959 0.166504 6.58341 0.166504H17.4167C20.9606 0.166504 23.8334 3.03934 23.8334 6.58317V17.4165C23.8334 20.9603 20.9606 23.8332 17.4167 23.8332H6.58341C3.03959 23.8332 0.166748 20.9603 0.166748 17.4165V6.58317ZM16.9584 6.0415C16.9584 5.48922 17.4061 5.0415 17.9584 5.0415H17.9692C18.5215 5.0415 18.9692 5.48922 18.9692 6.0415C18.9692 6.59379 18.5215 7.0415 17.9692 7.0415H17.9584C17.4061 7.0415 16.9584 6.59379 16.9584 6.0415ZM12.5358 8.65575C11.8423 8.55291 11.134 8.67137 10.5117 8.99428C9.88933 9.3172 9.38467 9.82813 9.06945 10.4544C8.75423 11.0807 8.64451 11.7904 8.7559 12.4826C8.86729 13.1748 9.19411 13.8143 9.68988 14.3101C10.1856 14.8058 10.8251 15.1326 11.5173 15.244C12.2096 15.3554 12.9193 15.2457 13.5455 14.9305C14.1718 14.6153 14.6827 14.1106 15.0056 13.4883C15.3286 12.8659 15.447 12.1576 15.3442 11.4641C15.2393 10.7566 14.9096 10.1017 14.4039 9.596C13.8982 9.0903 13.2433 8.76065 12.5358 8.65575ZM9.59053 7.21904C10.5863 6.70237 11.7196 6.51283 12.8292 6.67738C13.9611 6.84523 15.009 7.37267 15.8181 8.18179C16.6273 8.99092 17.1547 10.0388 17.3225 11.1707C17.4871 12.2804 17.2976 13.4137 16.7809 14.4094C16.2642 15.4051 15.4467 16.2126 14.4447 16.7169C13.4427 17.2213 12.3071 17.3968 11.1996 17.2186C10.092 17.0404 9.06889 16.5175 8.27566 15.7243C7.48244 14.931 6.95952 13.9079 6.7813 12.8003C6.60308 11.6928 6.77863 10.5572 7.28298 9.55521C7.78733 8.55319 8.59479 7.7357 9.59053 7.21904Z" fill="#00A3FF"/>
</svg>
