<svg width="26" height="22" viewBox="0 0 26 22" fill="none" xmlns="http://www.w3.org/2000/svg">
<path fill-rule="evenodd" clip-rule="evenodd" d="M15.765 0.623804C16.8852 0.196226 18.1098 0.123013 19.273 0.414067C20.2142 0.64958 21.0786 1.1144 21.7911 1.76259C22.6951 1.43506 23.5523 0.988029 24.3396 0.432744C24.6802 0.192477 25.1341 0.188699 25.4787 0.423263C25.8233 0.657827 25.9862 1.08153 25.8876 1.48653C25.5169 3.0087 24.7709 4.41079 23.7212 5.56645C23.7393 5.75086 23.7487 5.93611 23.7493 6.1216L23.7493 6.12491C23.7493 12.704 20.5833 17.5229 16.0421 19.9399C11.5252 22.3441 5.7485 22.3193 0.59698 19.4574C0.192169 19.2325 -0.00527713 18.7591 0.119771 18.3132C0.24482 17.8673 0.659646 17.5656 1.12237 17.584C3.01532 17.6593 4.88866 17.2701 6.58279 16.4619C4.89524 15.4465 3.69106 14.2328 2.8615 12.923C1.78365 11.2211 1.37614 9.41739 1.3024 7.79531C1.22887 6.17761 1.48587 4.72005 1.7564 3.674C1.89227 3.14865 2.0332 2.72078 2.14171 2.42065C2.5 1.5 2.78643 1.37356 3.15243 1.33794C3.51099 1.30305 3.8606 1.46371 4.06765 1.75853C5.06738 3.1821 6.40366 4.33632 7.95748 5.11841C9.22037 5.75407 10.5951 6.12785 11.9993 6.22133V6.16381C11.9847 4.96727 12.3372 3.79493 13.0093 2.80478C13.6828 1.81269 14.6447 1.05138 15.765 0.623804ZM3.64143 4.37983C3.42538 5.2745 3.24295 6.4419 3.30034 7.7045C3.36203 9.06159 3.6993 10.5079 4.55114 11.8529C5.39895 13.1915 6.7945 14.4905 9.0721 15.5028C9.4039 15.6502 9.6297 15.966 9.66199 16.3276C9.69429 16.6893 9.52801 17.04 9.22759 17.244C7.94569 18.1141 6.53328 18.7533 5.05387 19.1434C8.6056 20.1257 12.1867 19.7264 15.1024 18.1744C18.9566 16.123 21.7488 12.0049 21.7493 6.12657C21.7484 5.88726 21.7253 5.64855 21.6804 5.41349C21.6177 5.08563 21.7228 4.74812 21.9605 4.51373C22.2727 4.20585 22.5554 3.87204 22.8061 3.51678C22.477 3.64649 22.1422 3.76268 21.8026 3.86494C21.426 3.97835 21.0179 3.86044 20.7597 3.56365C20.2417 2.96802 19.5533 2.54586 18.7875 2.35425C18.0217 2.16265 17.2156 2.21085 16.4781 2.49233C15.7407 2.77381 15.1074 3.27499 14.6641 3.92809C14.2207 4.58119 13.9886 5.3547 13.9992 6.144L13.9994 6.15741L13.9993 7.24074C13.9993 7.78293 13.5672 8.22635 13.0252 8.2404C10.9565 8.29404 8.90671 7.83525 7.05829 6.90487C5.77995 6.26145 4.62539 5.40628 3.64143 4.37983Z" fill="#00A3FF"/>
</svg>
